<?xml version="1.0" standalone="no"?>
<!DOCTYPE svg PUBLIC "-//W3C//DTD SVG 1.1//EN" "http://www.w3.org/Graphics/SVG/1.1/DTD/svg11.dtd" >
<svg>
<metadata>
Created by FontForge 20110222 at Mon Nov 25 08:47:39 2013
 By Orthosie Webhosting
Copyright (C) 1995, 2007 Hoefler &#38; Frere-Jones. http://www.typography.com
</metadata>
<defs>
<font id="Knockout49Liteweight" horiz-adv-x="363" >
  <font-face 
    font-family="Knockout49Liteweight"
    font-weight="360"
    font-stretch="normal"
    units-per-em="1000"
    panose-1="2 0 5 6 4 0 0 2 0 4"
    ascent="800"
    descent="-200"
    x-height="480"
    cap-height="666"
    bbox="-222 -232 790 966"
    underline-thickness="67"
    underline-position="-49"
    unicode-range="U+0020-FB04"
  />
<missing-glyph horiz-adv-x="500" 
d="M0 -200v1000h500v-1000h-500zM71 750l179 -390l179 390h-358zM50 -76l172 376l-172 376v-752zM450 676l-172 -376l172 -376v752zM250 240l-179 -390h358z" />
    <glyph glyph-name="f_f" unicode="ff" horiz-adv-x="502" 
d="M495 583h-18q-29 0 -41 -14t-12 -42v-52h68v-86h-64v-389h-106v389h-53v86h53v37q0 154 140 154h33v-83zM244 583h-18q-29 0 -41 -14t-12 -42v-52h68v-86h-64v-389h-106v389h-53v86h53v37q0 154 140 154h33v-83z" />
    <glyph glyph-name="fi" unicode="fi" horiz-adv-x="436" 
d="M394 544h-101v101h101v-101zM241 389h-64v-389h-106v389h-53v86h53v37q0 154 140 154h33v-83h-17q-29 0 -41 -14t-12 -42v-52h67v-86zM397 0h-106v480h106v-480z" />
    <glyph glyph-name="fl" unicode="fl" horiz-adv-x="436" 
d="M397 0h-106v666h106v-666zM241 389h-64v-389h-106v389h-53v86h53v37q0 154 140 154h33v-83h-17q-29 0 -41 -14t-12 -42v-52h67v-86z" />
    <glyph glyph-name="f_f_i" unicode="ffi" horiz-adv-x="687" 
d="M645 544h-102v101h102v-101zM495 583h-18q-29 0 -41 -14t-12 -42v-52h68v-86h-64v-389h-106v389h-53v86h53v37q0 154 140 154h33v-83zM244 583h-18q-29 0 -41 -14t-12 -42v-52h68v-86h-64v-389h-106v389h-53v86h53v37q0 154 140 154h33v-83zM647 0h-105v480h105v-480z
" />
    <glyph glyph-name="f_f_l" unicode="ffl" horiz-adv-x="687" 
d="M647 0h-105v666h105v-666zM495 583h-18q-29 0 -41 -14t-12 -42v-52h68v-86h-64v-389h-106v389h-53v86h53v37q0 154 140 154h33v-83zM244 583h-18q-29 0 -41 -14t-12 -42v-52h68v-86h-64v-389h-106v389h-53v86h53v37q0 154 140 154h33v-83z" />
    <glyph glyph-name=".notdef" horiz-adv-x="500" 
d="M0 -200v1000h500v-1000h-500zM71 750l179 -390l179 390h-358zM50 -76l172 376l-172 376v-752zM450 676l-172 -376l172 -376v752zM250 240l-179 -390h358z" />
    <glyph glyph-name=".null" horiz-adv-x="0" 
 />
    <glyph glyph-name="nonmarkingreturn" horiz-adv-x="333" 
 />
    <glyph glyph-name="space" unicode=" " horiz-adv-x="153" 
 />
    <glyph glyph-name="exclam" unicode="!" horiz-adv-x="193" 
d="M151 377l-38 -191h-34l-37 191v289h109v-289zM143 0h-94v116h94v-116z" />
    <glyph glyph-name="quotedbl" unicode="&#x22;" horiz-adv-x="256" 
d="M265 666l-76 -203h-58l51 203h83zM137 666l-58 -203h-56l33 203h81z" />
    <glyph glyph-name="numbersign" unicode="#" horiz-adv-x="569" 
d="M560 429h-129l-33 -193h134v-58h-145l-30 -178h-65l30 178h-124l-30 -178h-65l30 178h-120v58h130l33 193h-135v59h145l31 178h65l-30 -178h124l30 178h66l-31 -178h119v-59zM366 429h-124l-33 -193h123z" />
    <glyph glyph-name="dollar" unicode="$" horiz-adv-x="419" 
d="M170 675v79h83v-77q61 -11 97 -57t36 -111v-43h-106v42q0 33 -16.5 52.5t-46.5 19.5q-26 0 -43 -16.5t-17 -46.5q0 -9 1 -17t4.5 -16.5t5.5 -14t9.5 -14.5t10 -13t13 -14t14 -13t16.5 -15t17 -15q45 -36 69 -59t48 -67.5t24 -93.5q0 -67 -37 -115t-99 -61v-77h-83v76
q-64 11 -100.5 56t-36.5 113v46h107v-42q0 -76 68 -76q31 0 48.5 18.5t17.5 51.5q0 37 -22.5 67t-77.5 73q-60 47 -96.5 95t-36.5 110q0 65 34 113t95 62z" />
    <glyph glyph-name="percent" unicode="%" horiz-adv-x="570" 
d="M231 439q0 -47 -28.5 -75t-72.5 -28t-72 28t-28 75v138q0 47 28 75t72 28t72.5 -28t28.5 -75v-138zM516 655l-416 -677l-42 32l416 677zM544 88q0 -48 -28.5 -76t-72.5 -28t-72 28t-28 76v138q0 47 28 75t72 28t72.5 -28t28.5 -75v-138zM164 425v167q0 14 -9.5 23.5
t-24.5 9.5q-14 0 -23.5 -9.5t-9.5 -23.5v-167q0 -14 9.5 -23.5t23.5 -9.5q15 0 24.5 9.5t9.5 23.5zM478 73v168q0 14 -10 23t-25 9q-14 0 -23.5 -9t-9.5 -23v-168q0 -14 9.5 -23.5t23.5 -9.5q15 0 25 9.5t10 23.5z" />
    <glyph glyph-name="ampersand" unicode="&#x26;" horiz-adv-x="556" 
d="M547 98q0 -55 -26.5 -84t-74.5 -29q-51 0 -106 52q-61 -52 -141 -52q-74 0 -121.5 50.5t-47.5 123.5q0 120 123 204q-33 75 -33 140q0 81 43.5 129.5t114.5 48.5q64 0 99 -41t35 -107q0 -57 -33.5 -103.5t-100.5 -92.5q38 -98 73 -152q20 33 32.5 78t12.5 81h88
q0 -56 -20.5 -119.5t-55.5 -114.5q27 -27 49 -27q29 0 29 34v44h61v-63zM317 527q0 53 -40 53q-24 0 -37.5 -20t-13.5 -53q0 -39 19 -93q36 25 54 55.5t18 57.5zM275 107q-42 57 -85 161q-46 -38 -46 -99q0 -39 20 -60.5t58 -21.5q29 0 53 20z" />
    <glyph glyph-name="quotesingle" unicode="'" horiz-adv-x="166" 
d="M173 666l-80 -203h-59l38 203h101z" />
    <glyph glyph-name="parenleft" unicode="(" horiz-adv-x="315" 
d="M320 -132l-30 -34q-102 82 -155 202.5t-53 264.5t53 264.5t155 202.5l30 -33q-135 -165 -135 -434q0 -268 135 -433z" />
    <glyph glyph-name="parenright" unicode=")" horiz-adv-x="315" 
d="M235 301q0 -144 -53 -264.5t-155 -202.5l-31 34q136 166 136 433q0 268 -136 434l31 33q102 -82 155 -202.5t53 -264.5z" />
    <glyph glyph-name="asterisk" unicode="*" horiz-adv-x="303" 
d="M275 484l-18 -31q-5 -11 -18 -3q-35 20 -68 52q11 -52 11 -86q0 -14 -11 -14h-37q-11 0 -11 14q0 42 11 86q-33 -32 -69 -53q-12 -7 -18 2l-18 32q-6 10 6 17q38 21 79 33q-49 15 -79 34q-13 6 -7 16l18 32q6 11 18 2q30 -17 69 -51q-12 44 -12 85q0 15 12 15h36
q11 0 11 -15q0 -42 -11 -85q42 37 69 53q13 6 18 -3l19 -32q5 -12 -7 -16q-35 -21 -79 -34q43 -12 79 -33q13 -7 7 -17z" />
    <glyph glyph-name="plus" unicode="+" horiz-adv-x="342" 
d="M312 300h-100v-105h-81v105h-100v82h100v105h81v-105h100v-82z" />
    <glyph glyph-name="comma" unicode="," horiz-adv-x="176" 
d="M136 13q0 -48 -27.5 -78t-77.5 -30v29q25 0 39.5 17t14.5 49h-45v127h96v-114z" />
    <glyph glyph-name="hyphen" unicode="-" horiz-adv-x="259" 
d="M234 263h-209v84h209v-84z" />
    <glyph glyph-name="period" unicode="." horiz-adv-x="176" 
d="M136 0h-96v127h96v-127z" />
    <glyph glyph-name="slash" unicode="/" horiz-adv-x="260" 
d="M258 729l-186 -793h-68l185 793h69z" />
    <glyph glyph-name="zero" unicode="0" horiz-adv-x="433" 
d="M394 158q0 -78 -48.5 -125.5t-129.5 -47.5t-129 47.5t-48 125.5v349q0 78 48 125.5t129 47.5t129.5 -47.5t48.5 -125.5v-349zM280 150v366q0 25 -17.5 41.5t-46.5 16.5t-46 -16.5t-17 -41.5v-366q0 -25 17 -41.5t46 -16.5t46.5 16.5t17.5 41.5z" />
    <glyph glyph-name="one" unicode="1" horiz-adv-x="247" 
d="M181 0h-115v613q52 0 52 53h63v-666z" />
    <glyph glyph-name="two" unicode="2" horiz-adv-x="396" 
d="M371 508q0 -62 -32 -118.5t-105 -125.5q-82 -90 -82 -158h214v-106h-341v35q0 78 28.5 141.5t108.5 154.5q56 59 78 98t22 82q0 67 -61 67t-61 -69v-61h-104v71q0 66 43 114t120 48q89 0 130.5 -48.5t41.5 -124.5z" />
    <glyph glyph-name="three" unicode="3" horiz-adv-x="396" 
d="M367 146q0 -73 -47.5 -117t-127.5 -44q-77 0 -119.5 46t-42.5 112v63h104v-50q0 -68 60 -68t60 63v97q0 45 -49 45h-51v88h51q49 0 49 46v88q0 63 -60 63t-60 -68v-51h-104v64q0 66 42 112t120 46q80 0 127.5 -44t47.5 -117v-68q0 -43 -21 -73.5t-58 -37.5
q79 -23 79 -110v-85z" />
    <glyph glyph-name="four" unicode="4" horiz-adv-x="394" 
d="M382 142h-54v-142h-107v142h-209v84l218 440h98v-428h54v-96zM221 238v213l-102 -213h102z" />
    <glyph glyph-name="five" unicode="5" horiz-adv-x="398" 
d="M369 666q-5 -57 -21.5 -81t-55.5 -24h-139l-11 -167q37 52 113 52q52 0 83.5 -34.5t31.5 -89.5v-173q0 -75 -47.5 -119.5t-128.5 -44.5q-76 0 -119 47t-43 111v56h103v-43q0 -31 16 -49.5t45 -18.5q61 0 61 65v150q0 24 -14 39t-36 15q-26 0 -43.5 -15t-23.5 -38l-100 15
l19 347h310z" />
    <glyph glyph-name="six" unicode="6" horiz-adv-x="417" 
d="M387 158q0 -78 -46.5 -125.5t-127.5 -47.5q-80 0 -127 48t-47 125v347q0 79 48 127.5t129 48.5q77 0 120.5 -47t43.5 -111v-54h-102v41q0 68 -64 68q-62 0 -62 -68v-157q41 52 111 52q59 0 91.5 -34.5t32.5 -90.5v-122zM275 145v120q0 56 -60 56q-29 0 -46 -15.5
t-17 -40.5v-116q0 -27 16.5 -44t44.5 -17q29 0 45.5 16t16.5 41z" />
    <glyph glyph-name="seven" unicode="7" horiz-adv-x="380" 
d="M370 607q-83 -166 -123 -306.5t-42 -300.5h-127q3 134 52.5 285t122.5 272h-228v109h345v-59z" />
    <glyph glyph-name="eight" unicode="8" horiz-adv-x="423" 
d="M388 146q0 -73 -48 -117t-129 -44q-80 0 -127.5 44t-47.5 117v81q0 38 17 67t46 43q-62 28 -62 110v73q0 73 47 117t127 44q81 0 128 -44t47 -117v-73q0 -82 -62 -110q29 -14 46.5 -43t17.5 -67v-81zM275 427v88q0 29 -18 46t-46 17t-45.5 -17t-17.5 -46v-88
q0 -24 16.5 -41.5t46.5 -17.5t47 17.5t17 41.5zM276 151v93q0 25 -17 42t-48 17q-30 0 -46.5 -17t-16.5 -42v-93q0 -29 17.5 -46t45.5 -17t46.5 17t18.5 46z" />
    <glyph glyph-name="nine" unicode="9" horiz-adv-x="425" 
d="M387 158q0 -78 -49 -125.5t-130 -47.5q-78 0 -123.5 45.5t-45.5 110.5v46h101v-32q0 -67 68 -67q65 0 65 66v148q-41 -52 -107 -52q-60 0 -94.5 36.5t-34.5 92.5v129q0 77 47 124.5t127 47.5q83 0 129.5 -47t46.5 -126v-349zM273 390v128q0 26 -16 43t-46 17
q-28 0 -44.5 -16t-16.5 -41v-131q0 -25 15.5 -41t45.5 -16q29 0 45.5 16.5t16.5 40.5z" />
    <glyph glyph-name="colon" unicode=":" horiz-adv-x="176" 
d="M136 312h-96v127h96v-127zM136 0h-96v127h96v-127z" />
    <glyph glyph-name="semicolon" unicode=";" horiz-adv-x="176" 
d="M136 312h-96v127h96v-127zM136 13q0 -48 -27.5 -78t-77.5 -30v29q25 0 39.5 17t14.5 49h-45v127h96v-114z" />
    <glyph glyph-name="less" unicode="&#x3c;" horiz-adv-x="464" 
d="M390 100l-339 220v27l339 219v-101l-199 -132l199 -132v-101z" />
    <glyph glyph-name="equal" unicode="=" horiz-adv-x="336" 
d="M309 381h-282v85h282v-85zM309 215h-282v86h282v-86z" />
    <glyph glyph-name="greater" unicode="&#x3e;" horiz-adv-x="464" 
d="M413 320l-338 -220v102l199 131l-199 132v101l338 -220v-26z" />
    <glyph glyph-name="question" unicode="?" horiz-adv-x="368" 
d="M350 515q0 -105 -99 -200q-29 -28 -40 -55.5t-11 -65.5h-79q0 59 16 98.5t63 105.5q39 54 39 107q0 73 -58 73q-59 0 -59 -72v-60h-102v71q0 72 41 118t119 46q86 0 128 -47t42 -119zM206 0h-94v116h94v-116z" />
    <glyph glyph-name="at" unicode="@" horiz-adv-x="632" 
d="M609 357q0 -86 -46 -148t-125 -62q-40 0 -63 22t-21 58q-16 -34 -43.5 -53t-57.5 -19q-38 0 -62 28t-24 74q0 71 47 138t112 67q27 0 44.5 -15t20.5 -41l16 48h76l-61 -189q-22 -72 35 -72q43 0 72.5 45t29.5 120q0 102 -65.5 166t-167.5 64q-109 0 -180 -81t-71 -199
q0 -121 70.5 -199.5t180.5 -78.5q100 0 170 65l28 -34q-81 -76 -198 -76q-128 0 -214.5 91.5t-86.5 231.5q0 137 87 231t214 94q71 0 127.5 -26t89 -67.5t49.5 -88.5t17 -94zM377 367q0 46 -37 46q-41 0 -70 -52.5t-29 -99.5q0 -53 41 -53q47 0 70 75z" />
    <glyph glyph-name="A" unicode="A" horiz-adv-x="413" 
d="M409 0h-126l-22 131h-118l-24 -131h-116l134 666h139zM245 229l-40 257l-45 -257h85z" />
    <glyph glyph-name="B" unicode="B" horiz-adv-x="434" 
d="M401 141q0 -69 -39.5 -105t-108.5 -36h-210v666h208q69 0 108 -36.5t39 -104.5v-72q0 -95 -79 -112q82 -22 82 -113v-87zM279 433v83q0 48 -44 48h-67v-183h62q49 0 49 52zM281 150v87q0 53 -49 53h-64v-188h70q43 0 43 48z" />
    <glyph glyph-name="C" unicode="C" horiz-adv-x="435" 
d="M408 159q0 -78 -47 -126t-133 -48q-87 0 -139.5 52t-52.5 131v330q0 79 52.5 131t139.5 52q86 0 133 -48t47 -126v-81h-111v80q0 30 -17 48t-50 18t-50.5 -17.5t-17.5 -46.5v-350q0 -29 17.5 -46.5t50.5 -17.5t50 18t17 48v80h111v-81z" />
    <glyph glyph-name="D" unicode="D" horiz-adv-x="453" 
d="M417 174q0 -81 -47.5 -127.5t-134.5 -46.5h-192v666h192q86 0 134 -49.5t48 -130.5v-312zM292 180v305q0 74 -66 74h-59v-452h59q66 0 66 73z" />
    <glyph glyph-name="E" unicode="E" horiz-adv-x="385" 
d="M361 0h-318v666h318v-107h-194v-165h134v-98h-134v-185h194v-111z" />
    <glyph glyph-name="F" unicode="F" horiz-adv-x="367" 
d="M354 562h-187v-175h138v-104h-138v-283h-124v666h311v-104z" />
    <glyph glyph-name="G" unicode="G" horiz-adv-x="446" 
d="M414 0h-68l-17 53q-34 -68 -122 -68q-80 0 -125.5 49.5t-45.5 124.5v348q0 72 51.5 122.5t138.5 50.5t135.5 -49.5t48.5 -123.5v-69h-119v74q0 26 -16.5 43t-47.5 17t-48 -18t-17 -44v-355q0 -26 17.5 -44t48.5 -18t48.5 18t17.5 44v93h-65v90h185v-338z" />
    <glyph glyph-name="H" unicode="H" horiz-adv-x="473" 
d="M431 0h-125v273h-139v-273h-124v666h124v-282h139v282h125v-666z" />
    <glyph glyph-name="I" unicode="I" horiz-adv-x="211" 
d="M167 0h-124v666h124v-666z" />
    <glyph glyph-name="J" unicode="J" horiz-adv-x="416" 
d="M376 164q0 -81 -47.5 -130t-131.5 -49q-83 0 -130.5 47t-47.5 126v107h119v-109q0 -62 57 -62q56 0 56 62v510h125v-502z" />
    <glyph glyph-name="K" unicode="K" horiz-adv-x="439" 
d="M432 0h-130l-92 274l-43 -88v-186h-124v666h124v-305l134 305h125l-131 -281z" />
    <glyph glyph-name="L" unicode="L" horiz-adv-x="365" 
d="M353 0h-310v666h124v-556h186v-110z" />
    <glyph glyph-name="M" unicode="M" horiz-adv-x="599" 
d="M556 0h-117v483l-27 -145l-71 -338h-94l-67 338l-26 145v-483h-111v666h167l69 -338l21 -123l22 123l68 338h166v-666z" />
    <glyph glyph-name="N" unicode="N" horiz-adv-x="471" 
d="M428 0h-96l-129 284l-47 106v-390h-114v666h107l123 -289l44 -106v395h112v-666z" />
    <glyph glyph-name="O" unicode="O" horiz-adv-x="450" 
d="M414 167q0 -81 -51 -131.5t-138 -50.5q-86 0 -137.5 50.5t-51.5 131.5v332q0 80 51.5 130.5t137.5 50.5t137.5 -50.5t51.5 -130.5v-332zM289 159v348q0 30 -17 47.5t-47 17.5t-46.5 -17.5t-16.5 -47.5v-348q0 -30 16.5 -47.5t46.5 -17.5t47 17.5t17 47.5z" />
    <glyph glyph-name="P" unicode="P" horiz-adv-x="422" 
d="M399 404q0 -71 -40 -110t-111 -39h-81v-255h-124v666h205q71 0 111 -39t40 -111v-112zM279 401v113q0 50 -44 50h-68v-213h68q44 0 44 50z" />
    <glyph glyph-name="Q" unicode="Q" horiz-adv-x="451" 
d="M452 0q-20 -15 -57 -15q-44 0 -72 30q-45 -30 -104 -30q-83 0 -133 50.5t-50 127.5v340q0 77 51.5 127t137.5 50t137.5 -50t51.5 -127v-341q0 -41 -16 -69q17 -14 54 -14v-79zM288 181v331q0 25 -17 42.5t-46 17.5t-46 -17.5t-17 -42.5v-358q0 -25 17 -42.5t46 -17.5
q23 0 36 9l-27 25z" />
    <glyph glyph-name="R" unicode="R" horiz-adv-x="439" 
d="M426 -4h-75q-68 0 -68 98v125q0 25 -13 41t-38 16h-65v-276h-124v666h205q69 0 110.5 -38t41.5 -107v-94q0 -80 -75 -103q37 -10 57 -38.5t20 -62.5v-122q0 -42 24 -68v-37zM279 421v95q0 48 -44 48h-68v-196h63q49 0 49 53z" />
    <glyph glyph-name="S" unicode="S" horiz-adv-x="417" 
d="M393 169q0 -81 -51 -132.5t-133 -51.5q-85 0 -135 47t-50 125v46h114v-39q0 -76 68 -76q32 0 49 18t17 49q0 38 -23.5 68.5t-76.5 69.5q-142 102 -142 208q0 76 48 127.5t134 51.5q78 0 126.5 -48t48.5 -123v-43h-113v40q0 32 -16 51.5t-47 19.5q-27 0 -43.5 -16
t-16.5 -44q0 -39 23 -66.5t84 -72.5q66 -50 100.5 -98t34.5 -111z" />
    <glyph glyph-name="T" unicode="T" horiz-adv-x="390" 
d="M380 556h-122v-556h-125v556h-123v110h370v-110z" />
    <glyph glyph-name="U" unicode="U" horiz-adv-x="455" 
d="M413 154q0 -75 -51.5 -122t-132.5 -47q-82 0 -135 47.5t-53 121.5v512h126v-512q0 -61 62 -61q63 0 63 61v512h121v-512z" />
    <glyph glyph-name="V" unicode="V" horiz-adv-x="422" 
d="M419 666l-148 -666h-120l-145 666h128l81 -459l83 459h121z" />
    <glyph glyph-name="W" unicode="W" horiz-adv-x="609" 
d="M606 666l-123 -666h-111l-67 392l-71 -392h-110l-118 666h123l60 -440l74 440h96l68 -440l64 440h115z" />
    <glyph glyph-name="X" unicode="X" horiz-adv-x="428" 
d="M420 0h-130l-78 230l-85 -230h-121l137 336l-129 330h130l73 -230l80 230h122l-133 -320z" />
    <glyph glyph-name="Y" unicode="Y" horiz-adv-x="416" 
d="M420 666l-151 -394v-272h-124v272l-147 394h130l86 -271l82 271h124z" />
    <glyph glyph-name="Z" unicode="Z" horiz-adv-x="397" 
d="M379 627l-213 -517h205v-110h-356v39l216 520h-203v107h351v-39z" />
    <glyph glyph-name="bracketleft" unicode="[" horiz-adv-x="289" 
d="M288 -150h-195v903h195v-75h-113v-754h113v-74z" />
    <glyph glyph-name="backslash" unicode="\" horiz-adv-x="260" 
d="M258 -64h-67l-186 793h68z" />
    <glyph glyph-name="bracketright" unicode="]" horiz-adv-x="289" 
d="M196 -150h-195v74h115v754h-115v75h195v-903z" />
    <glyph glyph-name="asciicircum" unicode="^" horiz-adv-x="277" 
d="M266 543q-26 -7 -45 -7q-31 0 -53 20t-31 58q-9 -38 -31.5 -58t-53.5 -20q-14 0 -39 7v29q60 0 85 94h82q25 -94 86 -94v-29z" />
    <glyph glyph-name="underscore" unicode="_" horiz-adv-x="337" 
d="M337 -85h-337v85h337v-85z" />
    <glyph glyph-name="grave" unicode="`" horiz-adv-x="182" 
d="M152 538h-59l-79 138h100z" />
    <glyph glyph-name="a" unicode="a" horiz-adv-x="359" 
d="M340 -8h-25q-64 0 -78 61q-35 -61 -107 -61q-48 0 -78.5 33t-30.5 90v14q0 67 49 102.5t144 59.5v69q0 42 -41 42q-39 0 -39 -44v-35h-96v30q0 61 35.5 98t104.5 37t103.5 -40t34.5 -106v-250q0 -24 24 -25v-75zM214 121v104q-48 -11 -70.5 -30t-22.5 -52v-27
q0 -20 10.5 -32.5t29.5 -12.5q22 0 37.5 14.5t15.5 35.5z" />
    <glyph glyph-name="b" unicode="b" horiz-adv-x="373" 
d="M339 124q0 -59 -29.5 -95.5t-81.5 -36.5q-72 0 -101 63l-12 -55h-75v666h105v-240q34 62 96 62q45 0 71.5 -36.5t26.5 -90.5v-237zM237 133v210q0 57 -45 57q-21 0 -34 -14.5t-13 -39.5v-215q0 -25 13 -40t33 -15q21 0 33.5 15t12.5 42z" />
    <glyph glyph-name="c" unicode="c" horiz-adv-x="345" 
d="M320 145q0 -72 -36.5 -112.5t-102.5 -40.5t-106.5 41.5t-40.5 112.5v187q0 71 40.5 113t106.5 42t102.5 -41t36.5 -113v-31h-89v47q0 53 -47 53q-48 0 -48 -55v-217q0 -54 48 -54q23 0 35 14t12 38v48h89v-32z" />
    <glyph glyph-name="d" unicode="d" horiz-adv-x="373" 
d="M333 0h-81l-6 55q-27 -63 -99 -63q-53 0 -83 36.5t-30 95.5v233q0 56 30 93.5t74 37.5q54 0 90 -47v225h105v-666zM228 131v216q0 25 -12.5 40t-33.5 15t-33.5 -15t-12.5 -42v-212q0 -27 12.5 -42t33.5 -15q20 0 33 15t13 40z" />
    <glyph glyph-name="e" unicode="e" horiz-adv-x="354" 
d="M324 143q0 -69 -38.5 -110t-104.5 -41q-65 0 -106 42t-41 110v192q0 67 41 109.5t106 42.5t104 -42t39 -110v-106h-188v-103q0 -23 12 -36.5t34 -13.5q47 0 47 50v47h95v-31zM227 280v72q0 24 -12 37.5t-33 13.5q-22 0 -34 -14t-12 -37v-72h91z" />
    <glyph glyph-name="f" unicode="f" horiz-adv-x="251" 
d="M241 389h-64v-389h-106v389h-53v86h53v37q0 154 140 154h33v-83h-17q-29 0 -41 -14t-12 -42v-52h67v-86z" />
    <glyph glyph-name="g" unicode="g" horiz-adv-x="364" 
d="M369 492q0 -29 -14.5 -45t-35.5 -16q-16 0 -32 8q41 -39 41 -90v-35q0 -60 -40 -98.5t-106 -38.5q-22 0 -33 3q-16 0 -25.5 -10t-9.5 -23q0 -32 82 -32q78 0 116 -31.5t38 -87.5v-23q0 -63 -43.5 -101t-119.5 -38q-71 0 -117.5 32t-46.5 84v22q0 26 16.5 47t45.5 31
q-56 20 -56 72q0 26 21 49t50 27q-30 12 -46.5 45t-16.5 74v31q0 59 42 99.5t103 40.5q18 0 36.5 -4t20.5 -4q29 0 40 13.5t11 38.5h76q3 -20 3 -40zM229 301v56q0 22 -13 36.5t-34 14.5q-22 0 -34.5 -14.5t-12.5 -36.5v-56q0 -22 12.5 -36t34.5 -14q21 0 34 14t13 36z
M256 -35v25q0 46 -68 46q-69 0 -69 -47v-25q0 -22 18 -35t51 -13q68 0 68 49z" />
    <glyph glyph-name="h" unicode="h" horiz-adv-x="379" 
d="M342 0h-105v354q0 22 -11.5 35t-30.5 13q-21 0 -35.5 -22.5t-14.5 -43.5v-336h-105v666h105v-251q15 34 41.5 53.5t58.5 19.5q45 0 71 -32.5t26 -87.5v-368z" />
    <glyph glyph-name="i" unicode="i" horiz-adv-x="185" 
d="M143 544h-102v101h102v-101zM145 0h-105v480h105v-480z" />
    <glyph glyph-name="j" unicode="j" horiz-adv-x="184" 
d="M143 544h-102v101h102v-101zM145 -16q0 -144 -135 -144h-31v80h11q29 0 39.5 10.5t10.5 34.5v515h105v-496z" />
    <glyph glyph-name="k" unicode="k" 
d="M354 0h-104l-66 194l-38 -74v-120h-106v666h106v-407l95 222h103l-93 -205z" />
    <glyph glyph-name="l" unicode="l" horiz-adv-x="185" 
d="M145 0h-105v666h105v-666z" />
    <glyph glyph-name="m" unicode="m" horiz-adv-x="549" 
d="M512 0h-105v356q0 20 -9.5 32t-26.5 12q-20 0 -31 -21.5t-11 -45.5v-333h-106v358q0 20 -9 32t-25 12q-21 0 -32.5 -21.5t-11.5 -44.5v-336h-105v480h91l9 -76q26 84 94 84q65 0 86 -80q26 80 96 80q45 0 70.5 -32t25.5 -89v-367z" />
    <glyph glyph-name="n" unicode="n" horiz-adv-x="380" 
d="M342 0h-105v354q0 22 -11.5 35t-29.5 13q-22 0 -36.5 -22t-14.5 -44v-336h-105v480h91l6 -78q15 42 42 64t61 22q49 0 75.5 -32.5t26.5 -87.5v-368z" />
    <glyph glyph-name="o" unicode="o" 
d="M329 146q0 -71 -40.5 -112.5t-106.5 -41.5q-67 0 -107.5 41.5t-40.5 112.5v187q0 71 41 113t107 42t106.5 -42t40.5 -113v-187zM227 126v227q0 22 -12.5 36t-32.5 14q-21 0 -33 -14t-12 -36v-227q0 -22 12 -35.5t33 -13.5q20 0 32.5 13.5t12.5 35.5z" />
    <glyph glyph-name="p" unicode="p" horiz-adv-x="373" 
d="M339 116q0 -52 -29.5 -88t-71.5 -36q-55 0 -93 47v-196h-105v637h81l6 -55q29 63 100 63q53 0 82.5 -36.5t29.5 -95.5v-240zM236 136v210q0 57 -45 57q-20 0 -33 -14.5t-13 -39.5v-216q0 -24 12.5 -39t33.5 -15q45 0 45 57z" />
    <glyph glyph-name="q" unicode="q" horiz-adv-x="373" 
d="M333 -158h-105v210q-31 -61 -97 -61q-40 0 -68.5 36t-28.5 88v240q0 60 29.5 96.5t83.5 36.5q71 0 99 -64l12 55h75v-637zM228 133v215q0 25 -13 39.5t-33 14.5q-46 0 -46 -56v-211q0 -27 12.5 -42t33.5 -15t33.5 15t12.5 40z" />
    <glyph glyph-name="r" unicode="r" horiz-adv-x="271" 
d="M257 375q-112 16 -112 -60v-315h-105v480h89l7 -82q28 105 121 86v-109z" />
    <glyph glyph-name="s" unicode="s" horiz-adv-x="335" 
d="M313 128q0 -57 -37 -96.5t-105 -39.5q-69 0 -107.5 38t-38.5 102v23h90v-26q0 -55 52 -55q50 0 50 45q0 16 -4.5 27.5t-20 24.5t-25.5 19.5t-41 25.5q-95 52 -95 138q0 61 39 97.5t101 36.5q65 0 101.5 -37.5t36.5 -98.5v-18h-87v24q0 45 -49 45q-44 0 -44 -40
q0 -22 16 -39t56 -41q54 -29 83 -64t29 -91z" />
    <glyph glyph-name="t" unicode="t" horiz-adv-x="245" 
d="M235 394h-64v-247q0 -95 25 -147h-108q-23 51 -23 147v247h-54v86h59v84l101 27v-111h64v-86z" />
    <glyph glyph-name="u" unicode="u" horiz-adv-x="382" 
d="M341 0h-89l-5 72q-15 -39 -43 -59.5t-62 -20.5q-49 0 -76 32.5t-27 86.5v369h106v-355q0 -22 11.5 -35t29.5 -13q21 0 35.5 22t14.5 44v337h105v-480z" />
    <glyph glyph-name="v" unicode="v" horiz-adv-x="333" 
d="M326 480l-114 -480h-92l-114 480h103l45 -238l15 -92l15 92l43 238h99z" />
    <glyph glyph-name="w" unicode="w" horiz-adv-x="491" 
d="M486 480l-102 -480h-85l-39 195l-14 91l-15 -91l-38 -195h-86l-101 480h103l34 -236l12 -96l13 96l39 236h86l35 -236l14 -96l12 96l38 236h94z" />
    <glyph glyph-name="x" unicode="x" horiz-adv-x="342" 
d="M334 0h-106l-57 157l-58 -157h-105l105 238l-105 242h106l58 -158l57 158h105l-105 -233z" />
    <glyph glyph-name="y" unicode="y" horiz-adv-x="333" 
d="M327 480l-116 -495q-19 -77 -47.5 -111t-97.5 -34h-30v80h22q27 0 37.5 10t16.5 37l8 41l-112 472h102l45 -237l15 -93l14 93l44 237h99z" />
    <glyph glyph-name="z" unicode="z" horiz-adv-x="309" 
d="M290 429l-156 -335h151v-94h-267v51l159 339h-149v90h262v-51z" />
    <glyph glyph-name="braceleft" unicode="{" horiz-adv-x="310" 
d="M265 -150h-39q-72 0 -110 39.5t-38 100.5q0 44 20 91t39.5 84.5t19.5 57.5q0 26 -14.5 38t-51.5 12h-33v57h33q37 0 51.5 11.5t14.5 37.5q0 21 -19.5 58t-39.5 84t-20 91q0 61 38 101t110 40h39v-72h-28q-61 0 -61 -68q0 -41 29 -110t29 -95q0 -42 -21 -67t-71 -36
q50 -10 71 -34.5t21 -67.5q0 -25 -29 -99t-29 -115q0 -68 61 -68h28v-71z" />
    <glyph glyph-name="bar" unicode="|" horiz-adv-x="152" 
d="M109 -64h-66v793h66v-793z" />
    <glyph glyph-name="braceright" unicode="}" horiz-adv-x="310" 
d="M252 273h-32q-37 0 -51.5 -12t-14.5 -38q0 -20 20 -57.5t39.5 -84.5t19.5 -91q0 -61 -38 -100.5t-110 -39.5h-39v71h28q61 0 61 68q0 41 -29 115t-29 99q0 42 21 67t70 35q-91 20 -91 103q0 26 29 95t29 110q0 68 -61 68h-28v72h39q72 0 110 -40t38 -101q0 -44 -19.5 -91
t-39.5 -84t-20 -58q0 -26 14.5 -37.5t51.5 -11.5h32v-57z" />
    <glyph glyph-name="asciitilde" unicode="~" horiz-adv-x="284" 
d="M273 351q0 -37 -18.5 -58t-54.5 -21q-26 0 -64.5 24t-48.5 24q-20 0 -20 -23v-24h-41q-13 19 -13 41q0 79 72 79q26 0 64.5 -23.5t48.5 -23.5q21 0 21 23v24h41q13 -21 13 -42z" />
    <glyph glyph-name="uni00A0" unicode="&#xa0;" horiz-adv-x="153" 
 />
    <glyph glyph-name="exclamdown" unicode="&#xa1;" horiz-adv-x="193" 
d="M143 364h-94v116h94v-116zM151 -186h-109v289l37 191h34l38 -191v-289z" />
    <glyph glyph-name="cent" unicode="&#xa2;" 
d="M152 578v88h77v-90q46 -12 72.5 -50t26.5 -95v-35h-91v50q0 22 -12 36t-34 14q-21 0 -33 -14t-12 -36v-225q0 -23 12 -36.5t33 -13.5q46 0 46 50v49h91v-35q0 -57 -26.5 -95t-72.5 -50v-90h-77v89q-50 11 -80 49.5t-30 96.5v196q0 57 30 96.5t80 50.5z" />
    <glyph glyph-name="sterling" unicode="&#xa3;" horiz-adv-x="483" 
d="M460 131q0 -69 -32 -107.5t-98 -38.5q-84 0 -136 52q-38 -52 -100 -52q-42 0 -68 25t-26 62q0 41 28.5 67.5t79.5 26.5q35 0 67 -17q20 29 20 79q0 35 -16 61h-124v82h88q-33 68 -33 132q0 74 45 126t128 52q77 0 117.5 -48t40.5 -112v-55h-102v42q0 31 -14.5 48.5
t-41.5 17.5q-55 0 -55 -66q0 -59 37 -137h130v-82h-105q5 -25 5 -45q0 -69 -53 -134q40 -27 71 -27q51 0 51 57v61h96v-70zM144 82q-21 20 -44 20q-28 0 -28 -24q0 -9 8 -16t21 -7q29 0 43 27z" />
    <glyph glyph-name="yen" unicode="&#xa5;" horiz-adv-x="447" 
d="M279 277v-63h122v-84h-122v-130h-116v130h-120v84h120v63h-120v83h92l-110 306h121l81 -258l77 258h118l-114 -306h93v-83h-122z" />
    <glyph glyph-name="section" unicode="&#xa7;" horiz-adv-x="437" 
d="M409 252q0 -85 -66 -131q60 -57 60 -125q0 -66 -46.5 -112t-133.5 -46q-89 0 -141.5 42.5t-52.5 115.5v28h110v-33q0 -27 20.5 -44t56.5 -17q74 0 74 60q0 25 -26 49t-63 45.5t-74 45.5t-63 60t-26 79q0 77 67 126q-60 57 -60 123q0 70 45 116.5t130 46.5t131.5 -46
t46.5 -114v-23h-109v30q0 56 -65 56q-62 0 -62 -54q0 -24 25.5 -48t62 -45.5t72.5 -46t61.5 -60.5t25.5 -78zM308 225q0 29 -30.5 59.5t-104.5 68.5q-35 -16 -35 -58q0 -28 28.5 -55t107.5 -69q34 15 34 54z" />
    <glyph glyph-name="dieresis" unicode="&#xa8;" horiz-adv-x="243" 
d="M229 546h-83v97h83v-97zM96 546h-82v97h82v-97z" />
    <glyph glyph-name="copyright" unicode="&#xa9;" horiz-adv-x="680" 
d="M658 326q0 -133 -91.5 -226t-226.5 -93t-226.5 93t-91.5 226t91.5 226.5t226.5 93.5t226.5 -93.5t91.5 -226.5zM608 326q0 116 -75.5 195t-192.5 79t-192.5 -79t-75.5 -195q0 -115 75.5 -194.5t192.5 -79.5t192.5 79.5t75.5 194.5zM448 268q0 -41 -28 -66.5t-75 -25.5
q-48 0 -78 26.5t-30 67.5v112q0 41 30 67.5t78 26.5q47 0 75 -25.5t28 -66.5v-19h-49v18q0 22 -14 36t-39 14q-26 0 -39.5 -14.5t-13.5 -37.5v-110q0 -22 13.5 -37t39.5 -15q25 0 39 14t14 36v19h49v-20z" />
    <glyph glyph-name="ordfeminine" unicode="&#xaa;" horiz-adv-x="311" 
d="M295 312h-29q-52 0 -63 46q-29 -46 -88 -46q-39 0 -63.5 25t-24.5 68v9q0 51 39.5 77t117.5 42v51q0 32 -33 32q-32 0 -32 -34v-25h-77v21q0 46 28.5 74t84.5 28t84 -30t28 -81v-181q0 -18 28 -18v-58zM184 410v75q-76 -15 -76 -61v-18q0 -34 34 -34q18 0 30 10.5
t12 27.5z" />
    <glyph glyph-name="guillemotleft" unicode="&#xab;" horiz-adv-x="422" 
d="M392 0h-49q-12 56 -48 100t-86 59v69q50 15 86 59t48 100h49q0 -59 -22 -112.5t-60 -81.5q38 -27 60 -80.5t22 -112.5zM207 0h-49q-12 56 -48 100t-87 59v69q50 15 86.5 59t48.5 100h49q0 -59 -22 -112.5t-60 -81.5q38 -27 60 -80.5t22 -112.5z" />
    <glyph glyph-name="registered" unicode="&#xae;" horiz-adv-x="365" 
d="M243 452q-30 0 -30 28v18q0 24 -23 24h-35v-67h-30v160h68q50 0 50 -45v-1q0 -31 -25 -36q25 -3 25 -34v-17q0 -7 11 -7v-23h-11zM346 535q0 -68 -47 -115t-116 -47t-115.5 47t-46.5 115t46.5 115.5t115.5 47.5t116 -47.5t47 -115.5zM47 535q0 -58 38.5 -98t97.5 -40
q60 0 98.5 40t38.5 98q0 59 -38.5 99.5t-98.5 40.5q-59 0 -97.5 -40.5t-38.5 -99.5zM212 566v5q0 20 -20 20h-37v-47h34q23 0 23 22z" />
    <glyph glyph-name="macron" unicode="&#xaf;" horiz-adv-x="253" 
d="M241 556h-229v65h229v-65z" />
    <glyph glyph-name="degree" unicode="&#xb0;" horiz-adv-x="277" 
d="M261 561q0 -49 -34.5 -84t-87.5 -35t-88 35t-35 84t35 84.5t88 35.5t87.5 -35.5t34.5 -84.5zM199 561q0 29 -16 47.5t-44 18.5t-44 -18.5t-16 -47.5q0 -30 16 -48t44 -18t44 18t16 48z" />
    <glyph glyph-name="plusminus" unicode="&#xb1;" horiz-adv-x="342" 
d="M313 76h-282v79h282v-79zM312 307h-100v-106h-81v106h-100v81h100v106h81v-106h100v-81z" />
    <glyph glyph-name="acute" unicode="&#xb4;" horiz-adv-x="182" 
d="M181 676l-80 -138h-59l38 138h101z" />
    <glyph glyph-name="paragraph" unicode="&#xb6;" horiz-adv-x="546" 
d="M499 -156h-71v733h-70v-733h-72v347h-39q-91 0 -151.5 63.5t-60.5 165.5v16q0 103 60.5 166.5t151.5 63.5h252v-822zM286 278v299h-19q-31 0 -49 -24t-18 -64v-130q0 -38 17.5 -59.5t49.5 -21.5h19z" />
    <glyph glyph-name="periodcentered" unicode="&#xb7;" horiz-adv-x="162" 
d="M130 268h-98v128h98v-128z" />
    <glyph glyph-name="cedilla" unicode="&#xb8;" horiz-adv-x="188" 
d="M192 -147q0 -36 -25.5 -60.5t-63.5 -24.5q-20 0 -37 10v32h17q38 0 38 34v27q0 34 -38 34q-18 0 -41 -21l-31 22l88 124l32 -23l-55 -77q11 7 35 7q38 0 59.5 -23t21.5 -61z" />
    <glyph glyph-name="ordmasculine" unicode="&#xba;" horiz-adv-x="286" 
d="M263 428q0 -53 -33.5 -84.5t-86.5 -31.5q-52 0 -85.5 31.5t-33.5 84.5v136q0 53 33.5 84.5t85.5 31.5q53 0 86.5 -31.5t33.5 -84.5v-136zM180 412v168q0 16 -10.5 26.5t-26.5 10.5t-26.5 -10.5t-10.5 -26.5v-168q0 -16 10 -26.5t27 -10.5t27 10.5t10 26.5z" />
    <glyph glyph-name="guillemotright" unicode="&#xbb;" horiz-adv-x="422" 
d="M398 159q-51 -15 -87 -59t-48 -100h-49q0 59 22 112.5t60 80.5q-38 28 -60 81.5t-22 112.5h49q12 -56 48.5 -100t86.5 -59v-69zM212 159q-50 -15 -86 -59t-48 -100h-49q0 59 22 112.5t60 80.5q-38 28 -60 81.5t-22 112.5h49q12 -56 48 -100t86 -59v-69z" />
    <glyph glyph-name="questiondown" unicode="&#xbf;" horiz-adv-x="338" 
d="M138 480h94v-116h-94v116zM-6 -35q0 106 98 200q52 48 52 120h79q0 -59 -16 -98t-64 -105q-38 -55 -38 -108q0 -38 14 -55t44 -17q58 0 58 72v60h102v-71q0 -72 -40.5 -118t-118.5 -46q-87 0 -128.5 47t-41.5 119z" />
    <glyph glyph-name="Agrave" unicode="&#xc0;" horiz-adv-x="413" 
d="M409 0h-126l-22 131h-118l-24 -131h-116l134 666h139zM245 229l-40 257l-45 -257h85zM233 701h-59l-79 138h100z" />
    <glyph glyph-name="Aacute" unicode="&#xc1;" horiz-adv-x="413" 
d="M409 0h-126l-22 131h-118l-24 -131h-116l134 666h139zM245 229l-40 257l-45 -257h85zM313 839l-80 -138h-59l38 138h101z" />
    <glyph glyph-name="Acircumflex" unicode="&#xc2;" horiz-adv-x="413" 
d="M409 0h-126l-22 131h-118l-24 -131h-116l134 666h139zM245 229l-40 257l-45 -257h85zM335 708q-24 -8 -45 -8q-65 0 -84 78q-9 -37 -31.5 -57.5t-53.5 -20.5q-17 0 -39 8v28q60 0 85 95h82q25 -95 86 -95v-28z" />
    <glyph glyph-name="Atilde" unicode="&#xc3;" horiz-adv-x="413" 
d="M409 0h-126l-22 131h-118l-24 -131h-116l134 666h139zM245 229l-40 257l-45 -257h85zM332 790q0 -79 -73 -79q-26 0 -64.5 24t-48.5 24q-20 0 -20 -23v-24h-41q-13 19 -13 41q0 79 72 79q26 0 64.5 -23.5t48.5 -23.5q21 0 21 23v23h41q13 -19 13 -41z" />
    <glyph glyph-name="Adieresis" unicode="&#xc4;" horiz-adv-x="413" 
d="M409 0h-126l-22 131h-118l-24 -131h-116l134 666h139zM245 229l-40 257l-45 -257h85zM311 709h-83v97h83v-97zM178 709h-82v97h82v-97z" />
    <glyph glyph-name="Aring" unicode="&#xc5;" horiz-adv-x="413" 
d="M156 666q-31 21 -31 60q0 34 23 58t58 24t58 -24t23 -58q0 -39 -31 -60h20l133 -666h-126l-22 131h-118l-24 -131h-116l134 666h19zM246 726q0 21 -10.5 33.5t-29.5 12.5t-29.5 -12.5t-10.5 -33.5q0 -20 10.5 -32.5t29.5 -12.5t29.5 12.5t10.5 32.5zM245 229l-40 257
l-45 -257h85z" />
    <glyph glyph-name="AE" unicode="&#xc6;" horiz-adv-x="618" 
d="M594 0h-319v131h-110l-41 -131h-122l217 666h375v-107h-194v-164h134v-99h-134v-185h194v-111zM275 229v272l-79 -272h79z" />
    <glyph glyph-name="Ccedilla" unicode="&#xc7;" horiz-adv-x="435" 
d="M188 -11q-71 12 -111.5 61t-40.5 118v330q0 79 52.5 131t139.5 52q86 0 133 -48t47 -126v-81h-111v80q0 30 -17 48t-50 18t-50.5 -17.5t-17.5 -46.5v-350q0 -29 17.5 -46.5t50.5 -17.5t50 18t17 48v80h111v-81q0 -76 -46 -124.5t-129 -49.5l-39 -53q10 6 35 6
q38 0 59.5 -23.5t21.5 -61.5q0 -36 -25.5 -60t-64.5 -24q-24 0 -37 10v32h18q38 0 38 33v27q0 34 -38 34q-21 0 -41 -21l-31 23z" />
    <glyph glyph-name="Egrave" unicode="&#xc8;" horiz-adv-x="385" 
d="M361 0h-318v666h318v-107h-194v-165h134v-98h-134v-185h194v-111zM232 701h-59l-79 138h100z" />
    <glyph glyph-name="Eacute" unicode="&#xc9;" horiz-adv-x="385" 
d="M361 0h-318v666h318v-107h-194v-165h134v-98h-134v-185h194v-111zM298 839l-80 -138h-59l38 138h101z" />
    <glyph glyph-name="Ecircumflex" unicode="&#xca;" horiz-adv-x="385" 
d="M361 0h-318v666h318v-107h-194v-165h134v-98h-134v-185h194v-111zM325 708q-24 -8 -45 -8q-65 0 -84 78q-9 -37 -31.5 -57.5t-53.5 -20.5q-17 0 -39 8v28q60 0 85 95h82q25 -95 86 -95v-28z" />
    <glyph glyph-name="Edieresis" unicode="&#xcb;" horiz-adv-x="385" 
d="M361 0h-318v666h318v-107h-194v-165h134v-98h-134v-185h194v-111zM307 709h-83v97h83v-97zM174 709h-82v97h82v-97z" />
    <glyph glyph-name="Igrave" unicode="&#xcc;" horiz-adv-x="211" 
d="M167 0h-124v666h124v-666zM134 701h-59l-79 138h100z" />
    <glyph glyph-name="Iacute" unicode="&#xcd;" horiz-adv-x="211" 
d="M167 0h-124v666h124v-666zM209 839l-80 -138h-59l38 138h101z" />
    <glyph glyph-name="Icircumflex" unicode="&#xce;" horiz-adv-x="211" 
d="M167 0h-124v666h124v-666zM234 708q-24 -8 -45 -8q-65 0 -84 78q-9 -37 -31.5 -57.5t-53.5 -20.5q-17 0 -39 8v28q60 0 85 95h82q25 -95 86 -95v-28z" />
    <glyph glyph-name="Idieresis" unicode="&#xcf;" horiz-adv-x="211" 
d="M167 0h-124v666h124v-666zM212 709h-83v97h83v-97zM79 709h-82v97h82v-97z" />
    <glyph glyph-name="Eth" unicode="&#xd0;" horiz-adv-x="481" 
d="M72 291h-73v84h73v291h191q86 0 134 -49.5t48 -130.5v-312q0 -81 -47.5 -127.5t-134.5 -46.5h-191v291zM196 375h62v-84h-62v-185h58q67 0 67 74v305q0 74 -67 74h-58v-184z" />
    <glyph glyph-name="Ntilde" unicode="&#xd1;" horiz-adv-x="471" 
d="M428 0h-96l-129 284l-47 106v-390h-114v666h107l123 -289l44 -106v395h112v-666zM363 790q0 -79 -73 -79q-26 0 -64.5 24t-48.5 24q-20 0 -20 -23v-24h-41q-13 19 -13 41q0 79 72 79q26 0 64.5 -23.5t48.5 -23.5q21 0 21 23v23h41q13 -19 13 -41z" />
    <glyph glyph-name="Ograve" unicode="&#xd2;" horiz-adv-x="450" 
d="M414 167q0 -81 -51 -131.5t-138 -50.5q-86 0 -137.5 50.5t-51.5 131.5v332q0 80 51.5 130.5t137.5 50.5t137.5 -50.5t51.5 -130.5v-332zM289 159v348q0 30 -17 47.5t-47 17.5t-46.5 -17.5t-16.5 -47.5v-348q0 -30 16.5 -47.5t46.5 -17.5t47 17.5t17 47.5zM255 701h-59
l-79 138h100z" />
    <glyph glyph-name="Oacute" unicode="&#xd3;" horiz-adv-x="450" 
d="M414 167q0 -81 -51 -131.5t-138 -50.5q-86 0 -137.5 50.5t-51.5 131.5v332q0 80 51.5 130.5t137.5 50.5t137.5 -50.5t51.5 -130.5v-332zM289 159v348q0 30 -17 47.5t-47 17.5t-46.5 -17.5t-16.5 -47.5v-348q0 -30 16.5 -47.5t46.5 -17.5t47 17.5t17 47.5zM332 839
l-80 -138h-59l38 138h101z" />
    <glyph glyph-name="Ocircumflex" unicode="&#xd4;" horiz-adv-x="450" 
d="M414 167q0 -81 -51 -131.5t-138 -50.5q-86 0 -137.5 50.5t-51.5 131.5v332q0 80 51.5 130.5t137.5 50.5t137.5 -50.5t51.5 -130.5v-332zM289 159v348q0 30 -17 47.5t-47 17.5t-46.5 -17.5t-16.5 -47.5v-348q0 -30 16.5 -47.5t46.5 -17.5t47 17.5t17 47.5zM354 708
q-24 -8 -45 -8q-65 0 -84 78q-9 -37 -31.5 -57.5t-53.5 -20.5q-17 0 -39 8v28q60 0 85 95h82q25 -95 86 -95v-28z" />
    <glyph glyph-name="Otilde" unicode="&#xd5;" horiz-adv-x="450" 
d="M414 167q0 -81 -51 -131.5t-138 -50.5q-86 0 -137.5 50.5t-51.5 131.5v332q0 80 51.5 130.5t137.5 50.5t137.5 -50.5t51.5 -130.5v-332zM289 159v348q0 30 -17 47.5t-47 17.5t-46.5 -17.5t-16.5 -47.5v-348q0 -30 16.5 -47.5t46.5 -17.5t47 17.5t17 47.5zM351 790
q0 -79 -73 -79q-26 0 -64.5 24t-48.5 24q-20 0 -20 -23v-24h-41q-13 19 -13 41q0 79 72 79q26 0 64.5 -23.5t48.5 -23.5q21 0 21 23v23h41q13 -19 13 -41z" />
    <glyph glyph-name="Odieresis" unicode="&#xd6;" horiz-adv-x="450" 
d="M414 167q0 -81 -51 -131.5t-138 -50.5q-86 0 -137.5 50.5t-51.5 131.5v332q0 80 51.5 130.5t137.5 50.5t137.5 -50.5t51.5 -130.5v-332zM289 159v348q0 30 -17 47.5t-47 17.5t-46.5 -17.5t-16.5 -47.5v-348q0 -30 16.5 -47.5t46.5 -17.5t47 17.5t17 47.5zM334 709h-83v97
h83v-97zM201 709h-82v97h82v-97z" />
    <glyph glyph-name="multiply" unicode="&#xd7;" horiz-adv-x="398" 
d="M350 243l-60 -60l-92 93l-91 -93l-60 59l92 92l-92 93l61 59l92 -92l91 92l59 -59l-92 -91z" />
    <glyph glyph-name="Oslash" unicode="&#xd8;" horiz-adv-x="458" 
d="M432 666l-40 -76q22 -38 22 -91v-332q0 -81 -51 -131.5t-138 -50.5q-78 0 -128 42l-30 -58l-50 31l40 77q-21 39 -21 90v332q0 80 51.5 130.5t137.5 50.5q77 0 127 -41l30 58zM288 518q-7 54 -63 54q-30 0 -46.5 -17.5t-16.5 -47.5v-230zM289 159v234l-127 -242
q2 -26 19 -41.5t44 -15.5q30 0 47 17.5t17 47.5z" />
    <glyph glyph-name="Ugrave" unicode="&#xd9;" horiz-adv-x="455" 
d="M413 154q0 -75 -51.5 -122t-132.5 -47q-82 0 -135 47.5t-53 121.5v512h126v-512q0 -61 62 -61q63 0 63 61v512h121v-512zM262 701h-59l-79 138h100z" />
    <glyph glyph-name="Uacute" unicode="&#xda;" horiz-adv-x="455" 
d="M413 154q0 -75 -51.5 -122t-132.5 -47q-82 0 -135 47.5t-53 121.5v512h126v-512q0 -61 62 -61q63 0 63 61v512h121v-512zM337 839l-80 -138h-59l38 138h101z" />
    <glyph glyph-name="Ucircumflex" unicode="&#xdb;" horiz-adv-x="455" 
d="M413 154q0 -75 -51.5 -122t-132.5 -47q-82 0 -135 47.5t-53 121.5v512h126v-512q0 -61 62 -61q63 0 63 61v512h121v-512zM360 708q-24 -8 -45 -8q-65 0 -84 78q-9 -37 -31.5 -57.5t-53.5 -20.5q-17 0 -39 8v28q60 0 85 95h82q25 -95 86 -95v-28z" />
    <glyph glyph-name="Udieresis" unicode="&#xdc;" horiz-adv-x="455" 
d="M413 154q0 -75 -51.5 -122t-132.5 -47q-82 0 -135 47.5t-53 121.5v512h126v-512q0 -61 62 -61q63 0 63 61v512h121v-512zM339 709h-83v97h83v-97zM206 709h-82v97h82v-97z" />
    <glyph glyph-name="Yacute" unicode="&#xdd;" horiz-adv-x="416" 
d="M420 666l-151 -394v-272h-124v272l-147 394h130l86 -271l82 271h124zM320 839l-80 -138h-59l38 138h101z" />
    <glyph glyph-name="Thorn" unicode="&#xde;" horiz-adv-x="422" 
d="M399 292q0 -71 -40 -110.5t-110 -39.5h-82v-142h-124v666h125v-112h81q70 0 110 -39.5t40 -110.5v-112zM279 289v113q0 50 -43 50h-69v-213h69q43 0 43 50z" />
    <glyph glyph-name="germandbls" unicode="&#xdf;" horiz-adv-x="381" 
d="M346 120q0 -61 -32.5 -94.5t-84.5 -33.5q-23 0 -45 11v54q58 -1 58 56v152q0 52 -55 52v75q60 0 60 54v83q0 59 -50 59q-24 0 -37 -17t-13 -45v-526h-105v514q0 73 40 115.5t112 42.5q73 0 110.5 -40.5t37.5 -109.5v-60q0 -37 -15 -66.5t-41 -41.5q33 -15 46.5 -40.5
t13.5 -68.5v-125z" />
    <glyph glyph-name="agrave" unicode="&#xe0;" horiz-adv-x="359" 
d="M340 -8h-25q-64 0 -78 61q-35 -61 -107 -61q-48 0 -78.5 33t-30.5 90v14q0 67 49 102.5t144 59.5v69q0 42 -41 42q-39 0 -39 -44v-35h-96v30q0 61 35.5 98t104.5 37t103.5 -40t34.5 -106v-250q0 -24 24 -25v-75zM214 121v104q-48 -11 -70.5 -30t-22.5 -52v-27
q0 -20 10.5 -32.5t29.5 -12.5q22 0 37.5 14.5t15.5 35.5zM208 538h-59l-79 138h100z" />
    <glyph glyph-name="aacute" unicode="&#xe1;" horiz-adv-x="359" 
d="M340 -8h-25q-64 0 -78 61q-35 -61 -107 -61q-48 0 -78.5 33t-30.5 90v14q0 67 49 102.5t144 59.5v69q0 42 -41 42q-39 0 -39 -44v-35h-96v30q0 61 35.5 98t104.5 37t103.5 -40t34.5 -106v-250q0 -24 24 -25v-75zM214 121v104q-48 -11 -70.5 -30t-22.5 -52v-27
q0 -20 10.5 -32.5t29.5 -12.5q22 0 37.5 14.5t15.5 35.5zM285 676l-80 -138h-59l38 138h101z" />
    <glyph glyph-name="acircumflex" unicode="&#xe2;" horiz-adv-x="359" 
d="M340 -8h-25q-64 0 -78 61q-35 -61 -107 -61q-48 0 -78.5 33t-30.5 90v14q0 67 49 102.5t144 59.5v69q0 42 -41 42q-39 0 -39 -44v-35h-96v30q0 61 35.5 98t104.5 37t103.5 -40t34.5 -106v-250q0 -24 24 -25v-75zM214 121v104q-48 -11 -70.5 -30t-22.5 -52v-27
q0 -20 10.5 -32.5t29.5 -12.5q22 0 37.5 14.5t15.5 35.5zM307 545q-24 -8 -45 -8q-65 0 -84 78q-9 -37 -31.5 -57.5t-53.5 -20.5q-17 0 -39 8v28q60 0 85 95h82q25 -95 86 -95v-28z" />
    <glyph glyph-name="atilde" unicode="&#xe3;" horiz-adv-x="359" 
d="M340 -8h-25q-64 0 -78 61q-35 -61 -107 -61q-48 0 -78.5 33t-30.5 90v14q0 67 49 102.5t144 59.5v69q0 42 -41 42q-39 0 -39 -44v-35h-96v30q0 61 35.5 98t104.5 37t103.5 -40t34.5 -106v-250q0 -24 24 -25v-75zM214 121v104q-48 -11 -70.5 -30t-22.5 -52v-27
q0 -20 10.5 -32.5t29.5 -12.5q22 0 37.5 14.5t15.5 35.5zM304 627q0 -79 -73 -79q-26 0 -64.5 24t-48.5 24q-20 0 -20 -23v-24h-41q-13 19 -13 41q0 79 72 79q26 0 64.5 -23.5t48.5 -23.5q21 0 21 23v23h41q13 -19 13 -41z" />
    <glyph glyph-name="adieresis" unicode="&#xe4;" horiz-adv-x="359" 
d="M340 -8h-25q-64 0 -78 61q-35 -61 -107 -61q-48 0 -78.5 33t-30.5 90v14q0 67 49 102.5t144 59.5v69q0 42 -41 42q-39 0 -39 -44v-35h-96v30q0 61 35.5 98t104.5 37t103.5 -40t34.5 -106v-250q0 -24 24 -25v-75zM214 121v104q-48 -11 -70.5 -30t-22.5 -52v-27
q0 -20 10.5 -32.5t29.5 -12.5q22 0 37.5 14.5t15.5 35.5zM283 546h-83v97h83v-97zM150 546h-82v97h82v-97z" />
    <glyph glyph-name="aring" unicode="&#xe5;" horiz-adv-x="359" 
d="M340 -8h-25q-64 0 -78 61q-35 -61 -107 -61q-48 0 -78.5 33t-30.5 90v14q0 67 49 102.5t144 59.5v69q0 42 -41 42q-39 0 -39 -44v-35h-96v30q0 61 35.5 98t104.5 37t103.5 -40t34.5 -106v-250q0 -24 24 -25v-75zM214 121v104q-48 -11 -70.5 -30t-22.5 -52v-27
q0 -20 10.5 -32.5t29.5 -12.5q22 0 37.5 14.5t15.5 35.5zM257 617q0 -33 -23 -57.5t-58 -24.5t-58 24.5t-23 57.5t23 57.5t58 24.5t58 -24.5t23 -57.5zM216 617q0 21 -10.5 33.5t-29.5 12.5q-39 0 -39 -46q0 -21 10.5 -33.5t28.5 -12.5t29 12.5t11 33.5z" />
    <glyph glyph-name="ae" unicode="&#xe6;" horiz-adv-x="541" 
d="M512 143q0 -68 -36.5 -109.5t-95.5 -41.5q-81 0 -116 57q-41 -57 -124 -57q-55 0 -86.5 33.5t-31.5 89.5v14q0 67 49 102.5t144 59.5v64q0 45 -42 45q-41 0 -41 -44v-33h-92v30q0 60 33.5 97.5t94.5 37.5q67 0 102 -55q37 55 110 55q60 0 96 -42t36 -110v-106h-188v-100
q0 -51 47 -51q23 0 35 14t12 37v44h94v-31zM415 280v70q0 23 -12 37t-33 14q-22 0 -34 -14t-12 -37v-70h91zM215 124v101q-48 -11 -70.5 -30t-22.5 -52v-25q0 -20 10.5 -32.5t29.5 -12.5q22 0 37.5 14.5t15.5 36.5z" />
    <glyph glyph-name="ccedilla" unicode="&#xe7;" horiz-adv-x="345" 
d="M143 -4q-50 11 -79.5 50t-29.5 100v187q0 71 40.5 113t106.5 42t102.5 -41t36.5 -113v-31h-89v47q0 53 -47 53q-48 0 -48 -55v-217q0 -54 48 -54q23 0 35 14t12 38v48h89v-32q0 -69 -34.5 -109.5t-97.5 -43.5l-45 -60q10 6 35 6q38 0 60 -23.5t22 -61.5q0 -35 -26 -59.5
t-65 -24.5q-22 0 -37 10v32h18q39 0 39 33v27q0 34 -39 34q-20 0 -40 -21l-31 23z" />
    <glyph glyph-name="egrave" unicode="&#xe8;" horiz-adv-x="354" 
d="M324 143q0 -69 -38.5 -110t-104.5 -41q-65 0 -106 42t-41 110v192q0 67 41 109.5t106 42.5t104 -42t39 -110v-106h-188v-103q0 -23 12 -36.5t34 -13.5q47 0 47 50v47h95v-31zM227 280v72q0 24 -12 37.5t-33 13.5q-22 0 -34 -14t-12 -37v-72h91zM212 538h-59l-79 138h100z
" />
    <glyph glyph-name="eacute" unicode="&#xe9;" horiz-adv-x="354" 
d="M324 143q0 -69 -38.5 -110t-104.5 -41q-65 0 -106 42t-41 110v192q0 67 41 109.5t106 42.5t104 -42t39 -110v-106h-188v-103q0 -23 12 -36.5t34 -13.5q47 0 47 50v47h95v-31zM227 280v72q0 24 -12 37.5t-33 13.5q-22 0 -34 -14t-12 -37v-72h91zM291 676l-80 -138h-59
l38 138h101z" />
    <glyph glyph-name="ecircumflex" unicode="&#xea;" horiz-adv-x="354" 
d="M324 143q0 -69 -38.5 -110t-104.5 -41q-65 0 -106 42t-41 110v192q0 67 41 109.5t106 42.5t104 -42t39 -110v-106h-188v-103q0 -23 12 -36.5t34 -13.5q47 0 47 50v47h95v-31zM227 280v72q0 24 -12 37.5t-33 13.5q-22 0 -34 -14t-12 -37v-72h91zM306 545q-24 -8 -45 -8
q-65 0 -84 78q-9 -37 -31.5 -57.5t-53.5 -20.5q-17 0 -39 8v28q60 0 85 95h82q25 -95 86 -95v-28z" />
    <glyph glyph-name="edieresis" unicode="&#xeb;" horiz-adv-x="354" 
d="M324 143q0 -69 -38.5 -110t-104.5 -41q-65 0 -106 42t-41 110v192q0 67 41 109.5t106 42.5t104 -42t39 -110v-106h-188v-103q0 -23 12 -36.5t34 -13.5q47 0 47 50v47h95v-31zM227 280v72q0 24 -12 37.5t-33 13.5q-22 0 -34 -14t-12 -37v-72h91zM287 546h-83v97h83v-97z
M154 546h-82v97h82v-97z" />
    <glyph glyph-name="igrave" unicode="&#xec;" horiz-adv-x="185" 
d="M145 0h-105v480h105v-480zM120 538h-59l-79 138h100z" />
    <glyph glyph-name="iacute" unicode="&#xed;" horiz-adv-x="185" 
d="M145 0h-105v480h105v-480zM202 676l-80 -138h-59l38 138h101z" />
    <glyph glyph-name="icircumflex" unicode="&#xee;" horiz-adv-x="185" 
d="M145 0h-105v480h105v-480zM222 545q-24 -8 -45 -8q-65 0 -84 78q-9 -37 -31.5 -57.5t-53.5 -20.5q-17 0 -39 8v28q60 0 85 95h82q25 -95 86 -95v-28z" />
    <glyph glyph-name="idieresis" unicode="&#xef;" horiz-adv-x="185" 
d="M145 0h-105v480h105v-480zM199 546h-83v97h83v-97zM66 546h-82v97h82v-97z" />
    <glyph glyph-name="eth" unicode="&#xf0;" horiz-adv-x="366" 
d="M255 624l54 24l19 -46l-43 -19q47 -78 47 -185v-253q0 -70 -42.5 -111.5t-108.5 -41.5q-65 0 -106 41t-41 112v210q0 52 30 88.5t75 36.5q52 0 89 -46q-3 63 -30 109l-61 -27l-18 46l52 24q-31 39 -83 77v3h124q27 -22 43 -42zM136 125q0 -20 13 -34t32 -14q20 0 33.5 14
t13.5 34v220q0 25 -12.5 39.5t-33.5 14.5q-46 0 -46 -55v-219z" />
    <glyph glyph-name="ntilde" unicode="&#xf1;" horiz-adv-x="380" 
d="M342 0h-105v354q0 22 -11.5 35t-29.5 13q-22 0 -36.5 -22t-14.5 -44v-336h-105v480h91l6 -78q15 42 42 64t61 22q49 0 75.5 -32.5t26.5 -87.5v-368zM313 627q0 -79 -73 -79q-26 0 -64.5 24t-48.5 24q-20 0 -20 -23v-24h-41q-13 19 -13 41q0 79 72 79q26 0 64.5 -23.5
t48.5 -23.5q21 0 21 23v23h41q13 -19 13 -41z" />
    <glyph glyph-name="ograve" unicode="&#xf2;" 
d="M329 146q0 -71 -40.5 -112.5t-106.5 -41.5q-67 0 -107.5 41.5t-40.5 112.5v187q0 71 41 113t107 42t106.5 -42t40.5 -113v-187zM227 126v227q0 22 -12.5 36t-32.5 14q-21 0 -33 -14t-12 -36v-227q0 -22 12 -35.5t33 -13.5q20 0 32.5 13.5t12.5 35.5zM212 538h-59l-79 138
h100z" />
    <glyph glyph-name="oacute" unicode="&#xf3;" 
d="M329 146q0 -71 -40.5 -112.5t-106.5 -41.5q-67 0 -107.5 41.5t-40.5 112.5v187q0 71 41 113t107 42t106.5 -42t40.5 -113v-187zM227 126v227q0 22 -12.5 36t-32.5 14q-21 0 -33 -14t-12 -36v-227q0 -22 12 -35.5t33 -13.5q20 0 32.5 13.5t12.5 35.5zM293 676l-80 -138
h-59l38 138h101z" />
    <glyph glyph-name="ocircumflex" unicode="&#xf4;" 
d="M329 146q0 -71 -40.5 -112.5t-106.5 -41.5q-67 0 -107.5 41.5t-40.5 112.5v187q0 71 41 113t107 42t106.5 -42t40.5 -113v-187zM227 126v227q0 22 -12.5 36t-32.5 14q-21 0 -33 -14t-12 -36v-227q0 -22 12 -35.5t33 -13.5q20 0 32.5 13.5t12.5 35.5zM313 545
q-24 -8 -45 -8q-65 0 -84 78q-9 -37 -31.5 -57.5t-53.5 -20.5q-17 0 -39 8v28q60 0 85 95h82q25 -95 86 -95v-28z" />
    <glyph glyph-name="otilde" unicode="&#xf5;" 
d="M329 146q0 -71 -40.5 -112.5t-106.5 -41.5q-67 0 -107.5 41.5t-40.5 112.5v187q0 71 41 113t107 42t106.5 -42t40.5 -113v-187zM227 126v227q0 22 -12.5 36t-32.5 14q-21 0 -33 -14t-12 -36v-227q0 -22 12 -35.5t33 -13.5q20 0 32.5 13.5t12.5 35.5zM309 627
q0 -79 -73 -79q-26 0 -64.5 24t-48.5 24q-20 0 -20 -23v-24h-41q-13 19 -13 41q0 79 72 79q26 0 64.5 -23.5t48.5 -23.5q21 0 21 23v23h41q13 -19 13 -41z" />
    <glyph glyph-name="odieresis" unicode="&#xf6;" 
d="M329 146q0 -71 -40.5 -112.5t-106.5 -41.5q-67 0 -107.5 41.5t-40.5 112.5v187q0 71 41 113t107 42t106.5 -42t40.5 -113v-187zM227 126v227q0 22 -12.5 36t-32.5 14q-21 0 -33 -14t-12 -36v-227q0 -22 12 -35.5t33 -13.5q20 0 32.5 13.5t12.5 35.5zM290 546h-83v97h83
v-97zM157 546h-82v97h82v-97z" />
    <glyph glyph-name="divide" unicode="&#xf7;" horiz-adv-x="342" 
d="M312 299h-281v82h281v-82zM215 426h-87v83h87v-83zM215 170h-87v83h87v-83z" />
    <glyph glyph-name="oslash" unicode="&#xf8;" 
d="M355 479q-19 -31 -42 -69q16 -34 16 -77v-187q0 -71 -40.5 -112.5t-106.5 -41.5q-65 0 -103 38l-35 -57l-35 28l41 67q-16 35 -16 78v187q0 71 41 113t107 42q62 0 102 -38l35 56zM227 126v144l-23 -36l-44 -72l-23 -37q0 -22 12 -35t33 -13q20 0 32.5 13.5t12.5 35.5z
M227 356q-1 20 -13.5 33.5t-31.5 13.5q-21 0 -33 -14t-12 -36v-144z" />
    <glyph glyph-name="ugrave" unicode="&#xf9;" horiz-adv-x="382" 
d="M341 0h-89l-5 72q-15 -39 -43 -59.5t-62 -20.5q-49 0 -76 32.5t-27 86.5v369h106v-355q0 -22 11.5 -35t29.5 -13q21 0 35.5 22t14.5 44v337h105v-480zM221 538h-59l-79 138h100z" />
    <glyph glyph-name="uacute" unicode="&#xfa;" horiz-adv-x="382" 
d="M341 0h-89l-5 72q-15 -39 -43 -59.5t-62 -20.5q-49 0 -76 32.5t-27 86.5v369h106v-355q0 -22 11.5 -35t29.5 -13q21 0 35.5 22t14.5 44v337h105v-480zM299 676l-80 -138h-59l38 138h101z" />
    <glyph glyph-name="ucircumflex" unicode="&#xfb;" horiz-adv-x="382" 
d="M341 0h-89l-5 72q-15 -39 -43 -59.5t-62 -20.5q-49 0 -76 32.5t-27 86.5v369h106v-355q0 -22 11.5 -35t29.5 -13q21 0 35.5 22t14.5 44v337h105v-480zM320 545q-24 -8 -45 -8q-65 0 -84 78q-9 -37 -31.5 -57.5t-53.5 -20.5q-17 0 -39 8v28q60 0 85 95h82q25 -95 86 -95
v-28z" />
    <glyph glyph-name="udieresis" unicode="&#xfc;" horiz-adv-x="382" 
d="M341 0h-89l-5 72q-15 -39 -43 -59.5t-62 -20.5q-49 0 -76 32.5t-27 86.5v369h106v-355q0 -22 11.5 -35t29.5 -13q21 0 35.5 22t14.5 44v337h105v-480zM299 546h-83v97h83v-97zM166 546h-82v97h82v-97z" />
    <glyph glyph-name="yacute" unicode="&#xfd;" horiz-adv-x="333" 
d="M327 480l-116 -495q-19 -77 -47.5 -111t-97.5 -34h-30v80h22q27 0 37.5 10t16.5 37l8 41l-112 472h102l45 -237l15 -93l14 93l44 237h99zM278 676l-80 -138h-59l38 138h101z" />
    <glyph glyph-name="thorn" unicode="&#xfe;" horiz-adv-x="373" 
d="M339 116q0 -52 -29.5 -88t-71.5 -36q-55 0 -93 47v-196h-105v823h105v-225q38 47 93 47q42 0 71.5 -36t29.5 -88v-248zM237 136v208q0 56 -46 56q-21 0 -33.5 -14.5t-12.5 -39.5v-213q0 -24 12.5 -39t33.5 -15t33.5 15t12.5 42z" />
    <glyph glyph-name="ydieresis" unicode="&#xff;" horiz-adv-x="333" 
d="M327 480l-116 -495q-19 -77 -47.5 -111t-97.5 -34h-30v80h22q27 0 37.5 10t16.5 37l8 41l-112 472h102l45 -237l15 -93l14 93l44 237h99zM279 546h-83v97h83v-97zM146 546h-82v97h82v-97z" />
    <glyph glyph-name="Amacron" unicode="&#x100;" horiz-adv-x="413" 
d="M409 0h-126l-22 131h-118l-24 -131h-116l134 666h139zM245 229l-40 257l-45 -257h85zM321 738h-229v65h229v-65z" />
    <glyph glyph-name="amacron" unicode="&#x101;" horiz-adv-x="359" 
d="M340 -8h-25q-64 0 -78 61q-35 -61 -107 -61q-48 0 -78.5 33t-30.5 90v14q0 67 49 102.5t144 59.5v69q0 42 -41 42q-39 0 -39 -44v-35h-96v30q0 61 35.5 98t104.5 37t103.5 -40t34.5 -106v-250q0 -24 24 -25v-75zM214 121v104q-48 -11 -70.5 -30t-22.5 -52v-27
q0 -20 10.5 -32.5t29.5 -12.5q22 0 37.5 14.5t15.5 35.5zM294 556h-229v65h229v-65z" />
    <glyph glyph-name="Abreve" unicode="&#x102;" horiz-adv-x="413" 
d="M409 0h-126l-22 131h-118l-24 -131h-116l134 666h139zM245 229l-40 257l-45 -257h85zM318 803q0 -35 -32 -58.5t-79 -23.5q-48 0 -79 23.5t-31 58.5q0 24 9 42h49v-15q0 -47 52 -47q53 0 53 47v15h48q10 -20 10 -42z" />
    <glyph glyph-name="abreve" unicode="&#x103;" horiz-adv-x="359" 
d="M340 -8h-25q-64 0 -78 61q-35 -61 -107 -61q-48 0 -78.5 33t-30.5 90v14q0 67 49 102.5t144 59.5v69q0 42 -41 42q-39 0 -39 -44v-35h-96v30q0 61 35.5 98t104.5 37t103.5 -40t34.5 -106v-250q0 -24 24 -25v-75zM214 121v104q-48 -11 -70.5 -30t-22.5 -52v-27
q0 -20 10.5 -32.5t29.5 -12.5q22 0 37.5 14.5t15.5 35.5zM291 621q0 -35 -32 -58.5t-79 -23.5q-48 0 -79 23.5t-31 58.5q0 24 9 42h49v-15q0 -47 52 -47q53 0 53 47v15h48q10 -20 10 -42z" />
    <glyph glyph-name="Aogonek" unicode="&#x104;" horiz-adv-x="413" 
d="M420 -129v-37q-22 -15 -52 -15q-38 0 -61 22.5t-23 56.5q0 58 61 102h-62l-22 131h-118l-24 -131h-116l134 666h139l133 -666h-23q-35 -40 -35 -81q0 -25 16 -40.5t53 -7.5zM245 229l-40 257l-45 -257h85z" />
    <glyph glyph-name="aogonek" unicode="&#x105;" horiz-adv-x="359" 
d="M316 342v-250q0 -24 24 -25v-72q-26 -14 -41.5 -35t-15.5 -43q0 -24 15.5 -38.5t50.5 -7.5v-37q-21 -15 -50 -15q-37 0 -59 21.5t-22 57.5q0 28 20 55t52 43q-42 10 -53 57q-35 -61 -107 -61q-48 0 -78.5 33t-30.5 90v14q0 67 49 102.5t144 59.5v69q0 42 -41 42
q-39 0 -39 -44v-35h-96v30q0 61 35.5 98t104.5 37t103.5 -40t34.5 -106zM214 121v104q-48 -11 -70.5 -30t-22.5 -52v-27q0 -20 10.5 -32.5t29.5 -12.5q22 0 37.5 14.5t15.5 35.5z" />
    <glyph glyph-name="Cacute" unicode="&#x106;" horiz-adv-x="435" 
d="M334 858l-80 -138h-59l38 138h101zM408 159q0 -78 -47 -126t-133 -48q-87 0 -139.5 52t-52.5 131v330q0 79 52.5 131t139.5 52q86 0 133 -48t47 -126v-81h-111v80q0 30 -17 48t-50 18t-50.5 -17.5t-17.5 -46.5v-350q0 -29 17.5 -46.5t50.5 -17.5t50 18t17 48v80h111v-81z
" />
    <glyph glyph-name="cacute" unicode="&#x107;" horiz-adv-x="345" 
d="M287 676l-80 -138h-59l38 138h101zM320 145q0 -72 -36.5 -112.5t-102.5 -40.5t-106.5 41.5t-40.5 112.5v187q0 71 40.5 113t106.5 42t102.5 -41t36.5 -113v-31h-89v47q0 53 -47 53q-48 0 -48 -55v-217q0 -54 48 -54q23 0 35 14t12 38v48h89v-32z" />
    <glyph glyph-name="Cdotaccent" unicode="&#x10a;" horiz-adv-x="435" 
d="M408 159q0 -78 -47 -126t-133 -48q-87 0 -139.5 52t-52.5 131v330q0 79 52.5 131t139.5 52q86 0 133 -48t47 -126v-81h-111v80q0 30 -17 48t-50 18t-50.5 -17.5t-17.5 -46.5v-350q0 -29 17.5 -46.5t50.5 -17.5t50 18t17 48v80h111v-81zM269 728h-82v97h82v-97z" />
    <glyph glyph-name="cdotaccent" unicode="&#x10b;" horiz-adv-x="345" 
d="M320 145q0 -72 -36.5 -112.5t-102.5 -40.5t-106.5 41.5t-40.5 112.5v187q0 71 40.5 113t106.5 42t102.5 -41t36.5 -113v-31h-89v47q0 53 -47 53q-48 0 -48 -55v-217q0 -54 48 -54q23 0 35 14t12 38v48h89v-32zM222 546h-82v97h82v-97z" />
    <glyph glyph-name="Ccaron" unicode="&#x10c;" horiz-adv-x="435" 
d="M354 818q-61 0 -86 -94h-82q-25 94 -85 94v28q20 7 44 7q66 0 85 -76q8 36 30.5 56t53.5 20q20 0 40 -7v-28zM408 159q0 -78 -47 -126t-133 -48q-87 0 -139.5 52t-52.5 131v330q0 79 52.5 131t139.5 52q86 0 133 -48t47 -126v-81h-111v80q0 30 -17 48t-50 18t-50.5 -17.5
t-17.5 -46.5v-350q0 -29 17.5 -46.5t50.5 -17.5t50 18t17 48v80h111v-81z" />
    <glyph glyph-name="ccaron" unicode="&#x10d;" horiz-adv-x="345" 
d="M307 636q-61 0 -86 -94h-82q-25 94 -85 94v28q20 7 44 7q66 0 85 -76q8 36 30.5 56t53.5 20q20 0 40 -7v-28zM320 145q0 -72 -36.5 -112.5t-102.5 -40.5t-106.5 41.5t-40.5 112.5v187q0 71 40.5 113t106.5 42t102.5 -41t36.5 -113v-31h-89v47q0 53 -47 53q-48 0 -48 -55
v-217q0 -54 48 -54q23 0 35 14t12 38v48h89v-32z" />
    <glyph glyph-name="Dcaron" unicode="&#x10e;" horiz-adv-x="453" 
d="M346 809q-61 0 -86 -94h-82q-25 94 -85 94v28q20 7 44 7q66 0 85 -76q8 36 30.5 56t53.5 20q20 0 40 -7v-28zM417 174q0 -81 -47.5 -127.5t-134.5 -46.5h-192v666h192q86 0 134 -49.5t48 -130.5v-312zM292 180v305q0 74 -66 74h-59v-452h59q66 0 66 73z" />
    <glyph glyph-name="dcaron" unicode="&#x10f;" horiz-adv-x="373" 
d="M456 666l-37 -164h-48v164h85zM333 0h-81l-6 55q-27 -63 -99 -63q-53 0 -83 36.5t-30 95.5v233q0 56 30 93.5t74 37.5q54 0 90 -47v225h105v-666zM228 131v216q0 25 -12.5 40t-33.5 15t-33.5 -15t-12.5 -42v-212q0 -27 12.5 -42t33.5 -15q20 0 33 15t13 40z" />
    <glyph glyph-name="Dcroat" unicode="&#x110;" horiz-adv-x="481" 
d="M72 291h-73v84h73v291h191q86 0 134 -49.5t48 -130.5v-312q0 -81 -47.5 -127.5t-134.5 -46.5h-191v291zM196 375h62v-84h-62v-185h58q67 0 67 74v305q0 74 -67 74h-58v-184z" />
    <glyph glyph-name="dcroat" unicode="&#x111;" horiz-adv-x="373" 
d="M132 537v55h96v74h105v-74h35v-55h-35v-537h-81l-6 55q-27 -63 -99 -63q-53 0 -83 36.5t-30 95.5v231q0 56 30 93.5t74 37.5q54 0 90 -47v98h-96zM228 131v214q0 25 -12.5 40t-33.5 15t-33.5 -15t-12.5 -42v-210q0 -27 12.5 -42t33.5 -15q20 0 33 15t13 40z" />
    <glyph glyph-name="Emacron" unicode="&#x112;" horiz-adv-x="385" 
d="M361 0h-318v666h318v-107h-194v-165h134v-98h-134v-185h194v-111zM314 729h-229v65h229v-65z" />
    <glyph glyph-name="emacron" unicode="&#x113;" horiz-adv-x="354" 
d="M324 143q0 -69 -38.5 -110t-104.5 -41q-65 0 -106 42t-41 110v192q0 67 41 109.5t106 42.5t104 -42t39 -110v-106h-188v-103q0 -23 12 -36.5t34 -13.5q47 0 47 50v47h95v-31zM227 280v72q0 24 -12 37.5t-33 13.5q-22 0 -34 -14t-12 -37v-72h91zM295 556h-229v65h229v-65z
" />
    <glyph glyph-name="Ebreve" unicode="&#x114;" horiz-adv-x="385" 
d="M361 0h-318v666h318v-107h-194v-165h134v-98h-134v-185h194v-111zM310 794q0 -35 -32 -58.5t-79 -23.5q-48 0 -79 23.5t-31 58.5q0 24 9 42h49v-15q0 -47 52 -47q53 0 53 47v15h48q10 -20 10 -42z" />
    <glyph glyph-name="ebreve" unicode="&#x115;" horiz-adv-x="354" 
d="M324 143q0 -69 -38.5 -110t-104.5 -41q-65 0 -106 42t-41 110v192q0 67 41 109.5t106 42.5t104 -42t39 -110v-106h-188v-103q0 -23 12 -36.5t34 -13.5q47 0 47 50v47h95v-31zM227 280v72q0 24 -12 37.5t-33 13.5q-22 0 -34 -14t-12 -37v-72h91zM292 621q0 -35 -32 -58.5
t-79 -23.5q-48 0 -79 23.5t-31 58.5q0 24 9 42h49v-15q0 -47 52 -47q53 0 53 47v15h48q10 -20 10 -42z" />
    <glyph glyph-name="Edotaccent" unicode="&#x116;" horiz-adv-x="385" 
d="M361 0h-318v666h318v-107h-194v-165h134v-98h-134v-185h194v-111zM240 719h-82v97h82v-97z" />
    <glyph glyph-name="edotaccent" unicode="&#x117;" horiz-adv-x="354" 
d="M324 143q0 -69 -38.5 -110t-104.5 -41q-65 0 -106 42t-41 110v192q0 67 41 109.5t106 42.5t104 -42t39 -110v-106h-188v-103q0 -23 12 -36.5t34 -13.5q47 0 47 50v47h95v-31zM227 280v72q0 24 -12 37.5t-33 13.5q-22 0 -34 -14t-12 -37v-72h91zM222 546h-82v97h82v-97z
" />
    <glyph glyph-name="Eogonek" unicode="&#x118;" horiz-adv-x="385" 
d="M361 0h-32q-35 -40 -35 -81q0 -25 16 -40.5t53 -7.5v-37q-23 -15 -52 -15q-38 0 -61 22.5t-23 56.5q0 58 61 102h-245v666h318v-107h-194v-165h134v-98h-134v-185h194v-111z" />
    <glyph glyph-name="eogonek" unicode="&#x119;" horiz-adv-x="354" 
d="M181 -8q-65 0 -106 42t-41 110v192q0 67 41 109.5t106 42.5t104 -42t39 -110v-106h-188v-103q0 -23 12 -36.5t34 -13.5q47 0 47 50v47h95v-31q0 -62 -32 -102q-4 -5 -17.5 -22t-18 -24t-13 -20.5t-11.5 -25.5t-3 -25q0 -28 17 -44.5t55 -8.5v-37q-21 -15 -52 -15
q-39 0 -62.5 23t-23.5 59q0 52 52 94q-16 -3 -34 -3zM227 280v72q0 24 -12 37.5t-33 13.5q-22 0 -34 -14t-12 -37v-72h91z" />
    <glyph glyph-name="Ecaron" unicode="&#x11a;" horiz-adv-x="385" 
d="M325 809q-61 0 -86 -94h-82q-25 94 -85 94v28q20 7 44 7q66 0 85 -76q8 36 30.5 56t53.5 20q20 0 40 -7v-28zM361 0h-318v666h318v-107h-194v-165h134v-98h-134v-185h194v-111z" />
    <glyph glyph-name="ecaron" unicode="&#x11b;" horiz-adv-x="354" 
d="M307 636q-61 0 -86 -94h-82q-25 94 -85 94v28q20 7 44 7q66 0 85 -76q8 36 30.5 56t53.5 20q20 0 40 -7v-28zM324 143q0 -69 -38.5 -110t-104.5 -41q-65 0 -106 42t-41 110v192q0 67 41 109.5t106 42.5t104 -42t39 -110v-106h-188v-103q0 -23 12 -36.5t34 -13.5
q47 0 47 50v47h95v-31zM227 280v72q0 24 -12 37.5t-33 13.5q-22 0 -34 -14t-12 -37v-72h91z" />
    <glyph glyph-name="Gbreve" unicode="&#x11e;" horiz-adv-x="446" 
d="M414 0h-68l-17 53q-34 -68 -122 -68q-80 0 -125.5 49.5t-45.5 124.5v348q0 72 51.5 122.5t138.5 50.5t135.5 -49.5t48.5 -123.5v-69h-119v74q0 26 -16.5 43t-47.5 17t-48 -18t-17 -44v-355q0 -26 17.5 -44t48.5 -18t48.5 18t17.5 44v93h-65v90h185v-338zM336 803
q0 -35 -32 -58.5t-79 -23.5q-48 0 -79 23.5t-31 58.5q0 24 9 42h49v-15q0 -47 52 -47q53 0 53 47v15h48q10 -20 10 -42z" />
    <glyph glyph-name="gbreve" unicode="&#x11f;" horiz-adv-x="364" 
d="M369 492q0 -29 -14.5 -45t-35.5 -16q-16 0 -32 8q41 -39 41 -90v-35q0 -60 -40 -98.5t-106 -38.5q-22 0 -33 3q-16 0 -25.5 -10t-9.5 -23q0 -32 82 -32q78 0 116 -31.5t38 -87.5v-23q0 -63 -43.5 -101t-119.5 -38q-71 0 -117.5 32t-46.5 84v22q0 26 16.5 47t45.5 31
q-56 20 -56 72q0 26 21 49t50 27q-30 12 -46.5 45t-16.5 74v31q0 59 42 99.5t103 40.5q18 0 36.5 -4t20.5 -4q29 0 40 13.5t11 38.5h76q3 -20 3 -40zM229 301v56q0 22 -13 36.5t-34 14.5q-22 0 -34.5 -14.5t-12.5 -36.5v-56q0 -22 12.5 -36t34.5 -14q21 0 34 14t13 36z
M256 -35v25q0 46 -68 46q-69 0 -69 -47v-25q0 -22 18 -35t51 -13q68 0 68 49zM294 621q0 -35 -32 -58.5t-79 -23.5q-48 0 -79 23.5t-31 58.5q0 24 9 42h49v-15q0 -47 52 -47q53 0 53 47v15h48q10 -20 10 -42z" />
    <glyph glyph-name="Gdotaccent" unicode="&#x120;" horiz-adv-x="446" 
d="M414 0h-68l-17 53q-34 -68 -122 -68q-80 0 -125.5 49.5t-45.5 124.5v348q0 72 51.5 122.5t138.5 50.5t135.5 -49.5t48.5 -123.5v-69h-119v74q0 26 -16.5 43t-47.5 17t-48 -18t-17 -44v-355q0 -26 17.5 -44t48.5 -18t48.5 18t17.5 44v93h-65v90h185v-338zM265 728h-82v97
h82v-97z" />
    <glyph glyph-name="gdotaccent" unicode="&#x121;" horiz-adv-x="364" 
d="M369 492q0 -29 -14.5 -45t-35.5 -16q-16 0 -32 8q41 -39 41 -90v-35q0 -60 -40 -98.5t-106 -38.5q-22 0 -33 3q-16 0 -25.5 -10t-9.5 -23q0 -32 82 -32q78 0 116 -31.5t38 -87.5v-23q0 -63 -43.5 -101t-119.5 -38q-71 0 -117.5 32t-46.5 84v22q0 26 16.5 47t45.5 31
q-56 20 -56 72q0 26 21 49t50 27q-30 12 -46.5 45t-16.5 74v31q0 59 42 99.5t103 40.5q18 0 36.5 -4t20.5 -4q29 0 40 13.5t11 38.5h76q3 -20 3 -40zM229 301v56q0 22 -13 36.5t-34 14.5q-22 0 -34.5 -14.5t-12.5 -36.5v-56q0 -22 12.5 -36t34.5 -14q21 0 34 14t13 36z
M256 -35v25q0 46 -68 46q-69 0 -69 -47v-25q0 -22 18 -35t51 -13q68 0 68 49zM223 546h-82v97h82v-97z" />
    <glyph glyph-name="Gcommaaccent" unicode="&#x122;" horiz-adv-x="446" 
d="M262 -133q0 -40 -22 -64t-64 -24v29q19 0 31.5 13.5t11.5 36.5h-42v94h85v-85zM414 0h-68l-17 53q-34 -68 -122 -68q-80 0 -125.5 49.5t-45.5 124.5v348q0 72 51.5 122.5t138.5 50.5t135.5 -49.5t48.5 -123.5v-69h-119v74q0 26 -16.5 43t-47.5 17t-48 -18t-17 -44v-355
q0 -26 17.5 -44t48.5 -18t48.5 18t17.5 44v93h-65v90h185v-338z" />
    <glyph glyph-name="gcommaaccent" unicode="&#x123;" horiz-adv-x="364" 
d="M139 640q0 40 22 64t64 24v-29q-19 0 -31.5 -13.5t-11.5 -36.5h42v-94h-85v85zM369 492q0 -29 -14.5 -45t-35.5 -16q-16 0 -32 8q41 -39 41 -90v-35q0 -60 -40 -98.5t-106 -38.5q-22 0 -33 3q-16 0 -25.5 -10t-9.5 -23q0 -32 82 -32q78 0 116 -31.5t38 -87.5v-23
q0 -63 -43.5 -101t-119.5 -38q-71 0 -117.5 32t-46.5 84v22q0 26 16.5 47t45.5 31q-56 20 -56 72q0 26 21 49t50 27q-30 12 -46.5 45t-16.5 74v31q0 59 42 99.5t103 40.5q18 0 36.5 -4t20.5 -4q29 0 40 13.5t11 38.5h76q3 -20 3 -40zM229 301v56q0 22 -13 36.5t-34 14.5
q-22 0 -34.5 -14.5t-12.5 -36.5v-56q0 -22 12.5 -36t34.5 -14q21 0 34 14t13 36zM256 -35v25q0 46 -68 46q-69 0 -69 -47v-25q0 -22 18 -35t51 -13q68 0 68 49z" />
    <glyph glyph-name="Hbar" unicode="&#x126;" horiz-adv-x="473" 
d="M431 0h-125v273h-139v-273h-124v508h-49v60h49v98h124v-98h139v98h125v-98h56v-60h-56v-508zM167 384h139v124h-139v-124z" />
    <glyph glyph-name="hbar" unicode="&#x127;" horiz-adv-x="379" 
d="M5 537v55h35v74h105v-74h97v-55h-97v-124q15 34 41.5 53.5t58.5 19.5q45 0 71 -32.5t26 -87.5v-366h-105v352q0 22 -11.5 35t-30.5 13q-21 0 -35.5 -22.5t-14.5 -43.5v-334h-105v537h-35z" />
    <glyph glyph-name="Imacron" unicode="&#x12a;" horiz-adv-x="211" 
d="M167 0h-124v666h124v-666zM220 729h-229v65h229v-65z" />
    <glyph glyph-name="imacron" unicode="&#x12b;" horiz-adv-x="185" 
d="M145 0h-105v480h105v-480zM208 556h-229v65h229v-65z" />
    <glyph glyph-name="Ibreve" unicode="&#x12c;" horiz-adv-x="211" 
d="M167 0h-124v666h124v-666zM217 794q0 -35 -32 -58.5t-79 -23.5q-48 0 -79 23.5t-31 58.5q0 24 9 42h49v-15q0 -47 52 -47q53 0 53 47v15h48q10 -20 10 -42z" />
    <glyph glyph-name="ibreve" unicode="&#x12d;" horiz-adv-x="185" 
d="M145 0h-105v480h105v-480zM205 621q0 -35 -32 -58.5t-79 -23.5q-48 0 -79 23.5t-31 58.5q0 24 9 42h49v-15q0 -47 52 -47q53 0 53 47v15h48q10 -20 10 -42z" />
    <glyph glyph-name="Iogonek" unicode="&#x12e;" horiz-adv-x="211" 
d="M170 -129v-37q-22 -15 -52 -15q-38 0 -61 22.5t-23 56.5q0 58 61 102h-52v666h124v-666h-31q-35 -40 -35 -81q0 -25 16 -40.5t53 -7.5z" />
    <glyph glyph-name="iogonek" unicode="&#x12f;" horiz-adv-x="185" 
d="M157 -129v-37q-22 -15 -52 -15q-38 0 -61 22.5t-23 56.5q0 58 61 102h-42v480h105v-480h-22q-35 -40 -35 -81q0 -25 16 -40.5t53 -7.5zM143 544h-102v101h102v-101z" />
    <glyph glyph-name="Idotaccent" unicode="&#x130;" horiz-adv-x="211" 
d="M167 0h-124v666h124v-666zM146 719h-82v97h82v-97z" />
    <glyph glyph-name="dotlessi" unicode="&#x131;" horiz-adv-x="185" 
d="M145 0h-105v480h105v-480z" />
    <glyph glyph-name="Kcommaaccent" unicode="&#x136;" horiz-adv-x="439" 
d="M263 -132q0 -40 -22 -64t-64 -24v29q19 0 31.5 13.5t11.5 36.5h-42v94h85v-85zM432 0h-130l-92 274l-43 -88v-186h-124v666h124v-305l134 305h125l-131 -281z" />
    <glyph glyph-name="kcommaaccent" unicode="&#x137;" 
d="M232 -133q0 -40 -22 -64t-64 -24v29q19 0 31.5 13.5t11.5 36.5h-42v94h85v-85zM354 0h-104l-66 194l-38 -74v-120h-106v666h106v-407l95 222h103l-93 -205z" />
    <glyph glyph-name="Lacute" unicode="&#x139;" horiz-adv-x="365" 
d="M210 839l-80 -138h-59l38 138h101zM353 0h-310v666h124v-556h186v-110z" />
    <glyph glyph-name="lacute" unicode="&#x13a;" horiz-adv-x="185" 
d="M199 838l-80 -138h-59l38 138h101zM145 0h-105v666h105v-666z" />
    <glyph glyph-name="Lcommaaccent" unicode="&#x13b;" horiz-adv-x="365" 
d="M237 -133q0 -40 -22 -64t-64 -24v29q19 0 31.5 13.5t11.5 36.5h-42v94h85v-85zM353 0h-310v666h124v-556h186v-110z" />
    <glyph glyph-name="lcommaaccent" unicode="&#x13c;" horiz-adv-x="185" 
d="M135 -133q0 -40 -22 -64t-64 -24v29q19 0 31.5 13.5t11.5 36.5h-42v94h85v-85zM145 0h-105v666h105v-666z" />
    <glyph glyph-name="Lcaron" unicode="&#x13d;" horiz-adv-x="365" 
d="M297 666l-37 -164h-48v164h85zM353 0h-310v666h124v-556h186v-110z" />
    <glyph glyph-name="lcaron" unicode="&#x13e;" horiz-adv-x="185" 
d="M270 666l-37 -164h-48v164h85zM145 0h-105v666h105v-666z" />
    <glyph glyph-name="Ldot" unicode="&#x13f;" horiz-adv-x="365" 
d="M335 295h-96v126h96v-126zM353 0h-310v666h124v-556h186v-110z" />
    <glyph glyph-name="ldot" unicode="&#x140;" horiz-adv-x="273" 
d="M275 264h-94v126h94v-126zM145 0h-105v666h105v-666z" />
    <glyph glyph-name="Lslash" unicode="&#x141;" horiz-adv-x="396" 
d="M217 327v-217h187v-110h-311v249l-75 -45l-22 48l97 63v351h124v-273l70 45l22 -49z" />
    <glyph glyph-name="lslash" unicode="&#x142;" horiz-adv-x="250" 
d="M267 439l-89 -90v-349h-106v246l-57 -56l-33 42l90 90v344h106v-240l57 56z" />
    <glyph glyph-name="Nacute" unicode="&#x143;" horiz-adv-x="471" 
d="M337 846l-80 -138h-59l38 138h101zM428 0h-96l-129 284l-47 106v-390h-114v666h107l123 -289l44 -106v395h112v-666z" />
    <glyph glyph-name="nacute" unicode="&#x144;" horiz-adv-x="380" 
d="M290 676l-80 -138h-59l38 138h101zM342 0h-105v354q0 22 -11.5 35t-29.5 13q-22 0 -36.5 -22t-14.5 -44v-336h-105v480h91l6 -78q15 42 42 64t61 22q49 0 75.5 -32.5t26.5 -87.5v-368z" />
    <glyph glyph-name="Ncommaaccent" unicode="&#x145;" horiz-adv-x="471" 
d="M278 -129q0 -40 -22 -64t-64 -24v29q19 0 31.5 13.5t11.5 36.5h-42v94h85v-85zM428 0h-96l-129 284l-47 106v-390h-114v666h107l123 -289l44 -106v395h112v-666z" />
    <glyph glyph-name="ncommaaccent" unicode="&#x146;" horiz-adv-x="380" 
d="M230 -133q0 -40 -22 -64t-64 -24v29q19 0 31.5 13.5t11.5 36.5h-42v94h85v-85zM342 0h-105v354q0 22 -11.5 35t-29.5 13q-22 0 -36.5 -22t-14.5 -44v-336h-105v480h91l6 -78q15 42 42 64t61 22q49 0 75.5 -32.5t26.5 -87.5v-368z" />
    <glyph glyph-name="Ncaron" unicode="&#x147;" horiz-adv-x="471" 
d="M357 806q-61 0 -86 -94h-82q-25 94 -85 94v28q20 7 44 7q66 0 85 -76q8 36 30.5 56t53.5 20q20 0 40 -7v-28zM428 0h-96l-129 284l-47 106v-390h-114v666h107l123 -289l44 -106v395h112v-666z" />
    <glyph glyph-name="ncaron" unicode="&#x148;" horiz-adv-x="380" 
d="M310 636q-61 0 -86 -94h-82q-25 94 -85 94v28q20 7 44 7q66 0 85 -76q8 36 30.5 56t53.5 20q20 0 40 -7v-28zM342 0h-105v354q0 22 -11.5 35t-29.5 13q-22 0 -36.5 -22t-14.5 -44v-336h-105v480h91l6 -78q15 42 42 64t61 22q49 0 75.5 -32.5t26.5 -87.5v-368z" />
    <glyph glyph-name="Omacron" unicode="&#x14c;" horiz-adv-x="450" 
d="M340 738h-229v65h229v-65zM414 167q0 -81 -51 -131.5t-138 -50.5q-86 0 -137.5 50.5t-51.5 131.5v332q0 80 51.5 130.5t137.5 50.5t137.5 -50.5t51.5 -130.5v-332zM289 159v348q0 30 -17 47.5t-47 17.5t-46.5 -17.5t-16.5 -47.5v-348q0 -30 16.5 -47.5t46.5 -17.5
t47 17.5t17 47.5z" />
    <glyph glyph-name="omacron" unicode="&#x14d;" 
d="M296 556h-229v65h229v-65zM329 146q0 -71 -40.5 -112.5t-106.5 -41.5q-67 0 -107.5 41.5t-40.5 112.5v187q0 71 41 113t107 42t106.5 -42t40.5 -113v-187zM227 126v227q0 22 -12.5 36t-32.5 14q-21 0 -33 -14t-12 -36v-227q0 -22 12 -35.5t33 -13.5q20 0 32.5 13.5
t12.5 35.5z" />
    <glyph glyph-name="Obreve" unicode="&#x14e;" horiz-adv-x="450" 
d="M414 167q0 -81 -51 -131.5t-138 -50.5q-86 0 -137.5 50.5t-51.5 131.5v332q0 80 51.5 130.5t137.5 50.5t137.5 -50.5t51.5 -130.5v-332zM289 159v348q0 30 -17 47.5t-47 17.5t-46.5 -17.5t-16.5 -47.5v-348q0 -30 16.5 -47.5t46.5 -17.5t47 17.5t17 47.5zM337 803
q0 -35 -32 -58.5t-79 -23.5q-48 0 -79 23.5t-31 58.5q0 24 9 42h49v-15q0 -47 52 -47q53 0 53 47v15h48q10 -20 10 -42z" />
    <glyph glyph-name="obreve" unicode="&#x14f;" 
d="M329 146q0 -71 -40.5 -112.5t-106.5 -41.5q-67 0 -107.5 41.5t-40.5 112.5v187q0 71 41 113t107 42t106.5 -42t40.5 -113v-187zM227 126v227q0 22 -12.5 36t-32.5 14q-21 0 -33 -14t-12 -36v-227q0 -22 12 -35.5t33 -13.5q20 0 32.5 13.5t12.5 35.5zM292 621
q0 -35 -32 -58.5t-79 -23.5q-48 0 -79 23.5t-31 58.5q0 24 9 42h49v-15q0 -47 52 -47q53 0 53 47v15h48q10 -20 10 -42z" />
    <glyph glyph-name="Ohungarumlaut" unicode="&#x150;" horiz-adv-x="450" 
d="M379 858l-75 -138h-59l51 138h83zM251 858l-58 -138h-57l35 138h80zM414 167q0 -81 -51 -131.5t-138 -50.5q-86 0 -137.5 50.5t-51.5 131.5v332q0 80 51.5 130.5t137.5 50.5t137.5 -50.5t51.5 -130.5v-332zM289 159v348q0 30 -17 47.5t-47 17.5t-46.5 -17.5t-16.5 -47.5
v-348q0 -30 16.5 -47.5t46.5 -17.5t47 17.5t17 47.5z" />
    <glyph glyph-name="ohungarumlaut" unicode="&#x151;" 
d="M335 676l-75 -138h-59l51 138h83zM207 676l-58 -138h-57l35 138h80zM329 146q0 -71 -40.5 -112.5t-106.5 -41.5q-67 0 -107.5 41.5t-40.5 112.5v187q0 71 41 113t107 42t106.5 -42t40.5 -113v-187zM227 126v227q0 22 -12.5 36t-32.5 14q-21 0 -33 -14t-12 -36v-227
q0 -22 12 -35.5t33 -13.5q20 0 32.5 13.5t12.5 35.5z" />
    <glyph glyph-name="OE" unicode="&#x152;" horiz-adv-x="630" 
d="M606 0h-381q-89 0 -138 48t-49 132v300q0 85 49.5 135.5t137.5 50.5h381v-107h-194v-164h134v-99h-134v-185h194v-111zM287 106v454h-54q-71 0 -71 -79v-296q0 -79 71 -79h54z" />
    <glyph glyph-name="oe" unicode="&#x153;" horiz-adv-x="555" 
d="M526 143q0 -69 -36 -110t-96 -41q-75 0 -112 56q-35 -56 -112 -56q-61 0 -98.5 41.5t-37.5 112.5v187q0 71 37.5 113t98.5 42q77 0 113 -57q16 26 46 41.5t65 15.5q60 0 96 -42t36 -110v-106h-188v-100q0 -51 46 -51q47 0 47 51v44h95v-31zM429 280v70q0 23 -12 37
t-33 14q-22 0 -34 -14t-12 -37v-70h91zM227 129v221q0 23 -12.5 37t-33.5 14q-20 0 -32.5 -14t-12.5 -37v-221q0 -23 12.5 -36.5t32.5 -13.5q21 0 33.5 13.5t12.5 36.5z" />
    <glyph glyph-name="Racute" unicode="&#x154;" horiz-adv-x="439" 
d="M319 849l-80 -138h-59l38 138h101zM426 -4h-75q-68 0 -68 98v125q0 25 -13 41t-38 16h-65v-276h-124v666h205q69 0 110.5 -38t41.5 -107v-94q0 -80 -75 -103q37 -10 57 -38.5t20 -62.5v-122q0 -42 24 -68v-37zM279 421v95q0 48 -44 48h-68v-196h63q49 0 49 53z" />
    <glyph glyph-name="racute" unicode="&#x155;" horiz-adv-x="271" 
d="M254 676l-80 -138h-59l38 138h101zM257 375q-112 16 -112 -60v-315h-105v480h89l7 -82q28 105 121 86v-109z" />
    <glyph glyph-name="Rcommaaccent" unicode="&#x156;" horiz-adv-x="439" 
d="M265 -133q0 -40 -22 -64t-64 -24v29q19 0 31.5 13.5t11.5 36.5h-42v94h85v-85zM426 -4h-75q-68 0 -68 98v125q0 25 -13 41t-38 16h-65v-276h-124v666h205q69 0 110.5 -38t41.5 -107v-94q0 -80 -75 -103q37 -10 57 -38.5t20 -62.5v-122q0 -42 24 -68v-37zM279 421v95
q0 48 -44 48h-68v-196h63q49 0 49 53z" />
    <glyph glyph-name="rcommaaccent" unicode="&#x157;" horiz-adv-x="271" 
d="M136 -133q0 -40 -22 -64t-64 -24v29q19 0 31.5 13.5t11.5 36.5h-42v94h85v-85zM257 375q-112 16 -112 -60v-315h-105v480h89l7 -82q28 105 121 86v-109z" />
    <glyph glyph-name="Rcaron" unicode="&#x158;" horiz-adv-x="439" 
d="M338 809q-61 0 -86 -94h-82q-25 94 -85 94v28q20 7 44 7q66 0 85 -76q8 36 30.5 56t53.5 20q20 0 40 -7v-28zM426 -4h-75q-68 0 -68 98v125q0 25 -13 41t-38 16h-65v-276h-124v666h205q69 0 110.5 -38t41.5 -107v-94q0 -80 -75 -103q37 -10 57 -38.5t20 -62.5v-122
q0 -42 24 -68v-37zM279 421v95q0 48 -44 48h-68v-196h63q49 0 49 53z" />
    <glyph glyph-name="rcaron" unicode="&#x159;" horiz-adv-x="271" 
d="M274 636q-61 0 -86 -94h-82q-25 94 -85 94v28q20 7 44 7q66 0 85 -76q8 36 30.5 56t53.5 20q20 0 40 -7v-28zM257 375q-112 16 -112 -60v-315h-105v480h89l7 -82q28 105 121 86v-109z" />
    <glyph glyph-name="Sacute" unicode="&#x15a;" horiz-adv-x="417" 
d="M318 858l-80 -138h-59l38 138h101zM393 169q0 -81 -51 -132.5t-133 -51.5q-85 0 -135 47t-50 125v46h114v-39q0 -76 68 -76q32 0 49 18t17 49q0 38 -23.5 68.5t-76.5 69.5q-142 102 -142 208q0 76 48 127.5t134 51.5q78 0 126.5 -48t48.5 -123v-43h-113v40q0 32 -16 51.5
t-47 19.5q-27 0 -43.5 -16t-16.5 -44q0 -39 23 -66.5t84 -72.5q66 -50 100.5 -98t34.5 -111z" />
    <glyph glyph-name="sacute" unicode="&#x15b;" horiz-adv-x="335" 
d="M280 676l-80 -138h-59l38 138h101zM313 128q0 -57 -37 -96.5t-105 -39.5q-69 0 -107.5 38t-38.5 102v23h90v-26q0 -55 52 -55q50 0 50 45q0 16 -4.5 27.5t-20 24.5t-25.5 19.5t-41 25.5q-95 52 -95 138q0 61 39 97.5t101 36.5q65 0 101.5 -37.5t36.5 -98.5v-18h-87v24
q0 45 -49 45q-44 0 -44 -40q0 -22 16 -39t56 -41q54 -29 83 -64t29 -91z" />
    <glyph glyph-name="Scedilla" unicode="&#x15e;" horiz-adv-x="417" 
d="M285 -147q0 -36 -25.5 -60.5t-63.5 -24.5q-20 0 -37 10v32h17q38 0 38 34v27q0 34 -38 34q-18 0 -41 -21l-31 22l59 83q-65 12 -102 56.5t-37 111.5v46h114v-39q0 -76 68 -76q32 0 49 18t17 49q0 38 -23.5 68.5t-76.5 69.5q-142 102 -142 208q0 76 48 127.5t134 51.5
q78 0 126.5 -48t48.5 -123v-43h-113v40q0 32 -16 51.5t-47 19.5q-27 0 -43.5 -16t-16.5 -44q0 -39 23 -66.5t84 -72.5q66 -50 100.5 -98t34.5 -111q0 -81 -51 -132.5t-133 -51.5h-1l-39 -55q11 7 35 7q38 0 59.5 -23t21.5 -61z" />
    <glyph glyph-name="scedilla" unicode="&#x15f;" horiz-adv-x="335" 
d="M250 -147q0 -36 -25.5 -60.5t-63.5 -24.5q-20 0 -37 10v32h17q38 0 38 34v27q0 34 -38 34q-18 0 -41 -21l-31 22l63 90q-51 10 -79 46t-28 90v23h90v-26q0 -55 52 -55q50 0 50 45q0 16 -4.5 27.5t-20 24.5t-25.5 19.5t-41 25.5q-95 52 -95 138q0 61 39 97.5t101 36.5
q65 0 101.5 -37.5t36.5 -98.5v-18h-87v24q0 45 -49 45q-44 0 -44 -40q0 -22 16 -39t56 -41q54 -29 83 -64t29 -91q0 -55 -35 -94t-100 -42l-44 -62q11 7 35 7q38 0 59.5 -23t21.5 -61z" />
    <glyph glyph-name="Scaron" unicode="&#x160;" horiz-adv-x="417" 
d="M393 169q0 -81 -51 -132.5t-133 -51.5q-85 0 -135 47t-50 125v46h114v-39q0 -76 68 -76q32 0 49 18t17 49q0 38 -23.5 68.5t-76.5 69.5q-142 102 -142 208q0 76 48 127.5t134 51.5q78 0 126.5 -48t48.5 -123v-43h-113v40q0 32 -16 51.5t-47 19.5q-27 0 -43.5 -16
t-16.5 -44q0 -39 23 -66.5t84 -72.5q66 -50 100.5 -98t34.5 -111zM335 799q-61 0 -86 -94h-82q-25 94 -85 94v28q20 7 44 7q66 0 85 -76q8 36 30.5 56t53.5 20q20 0 40 -7v-28z" />
    <glyph glyph-name="scaron" unicode="&#x161;" horiz-adv-x="335" 
d="M313 128q0 -57 -37 -96.5t-105 -39.5q-69 0 -107.5 38t-38.5 102v23h90v-26q0 -55 52 -55q50 0 50 45q0 16 -4.5 27.5t-20 24.5t-25.5 19.5t-41 25.5q-95 52 -95 138q0 61 39 97.5t101 36.5q65 0 101.5 -37.5t36.5 -98.5v-18h-87v24q0 45 -49 45q-44 0 -44 -40
q0 -22 16 -39t56 -41q54 -29 83 -64t29 -91zM296 636q-61 0 -86 -94h-82q-25 94 -85 94v28q20 7 44 7q66 0 85 -76q8 36 30.5 56t53.5 20q20 0 40 -7v-28z" />
    <glyph glyph-name="Tcommaaccent" unicode="&#x162;" horiz-adv-x="390" 
d="M238 -133q0 -40 -22 -64t-64 -24v29q19 0 31.5 13.5t11.5 36.5h-42v94h85v-85zM380 556h-122v-556h-125v556h-123v110h370v-110z" />
    <glyph glyph-name="tcommaaccent" unicode="&#x163;" horiz-adv-x="245" 
d="M235 394h-64v-247q0 -95 25 -147h-108q-23 51 -23 147v247h-54v86h59v84l101 27v-111h64v-86zM183 -133q0 -40 -22 -64t-64 -24v29q19 0 31.5 13.5t11.5 36.5h-42v94h85v-85z" />
    <glyph glyph-name="Tcaron" unicode="&#x164;" horiz-adv-x="390" 
d="M322 809q-61 0 -86 -94h-82q-25 94 -85 94v28q20 7 44 7q66 0 85 -76q8 36 30.5 56t53.5 20q20 0 40 -7v-28zM380 556h-122v-556h-125v556h-123v110h370v-110z" />
    <glyph glyph-name="tcaron" unicode="&#x165;" horiz-adv-x="245" 
d="M235 394h-64v-247q0 -95 25 -147h-108q-23 51 -23 147v247h-54v86h59v84l101 27v-111h64v-86zM290 684l-37 -164h-48v164h85z" />
    <glyph glyph-name="Umacron" unicode="&#x16a;" horiz-adv-x="455" 
d="M413 154q0 -75 -51.5 -122t-132.5 -47q-82 0 -135 47.5t-53 121.5v512h126v-512q0 -61 62 -61q63 0 63 61v512h121v-512zM342 726h-229v65h229v-65z" />
    <glyph glyph-name="umacron" unicode="&#x16b;" horiz-adv-x="382" 
d="M341 0h-89l-5 72q-15 -39 -43 -59.5t-62 -20.5q-49 0 -76 32.5t-27 86.5v369h106v-355q0 -22 11.5 -35t29.5 -13q21 0 35.5 22t14.5 44v337h105v-480zM305 556h-229v65h229v-65z" />
    <glyph glyph-name="Ubreve" unicode="&#x16c;" horiz-adv-x="455" 
d="M413 154q0 -75 -51.5 -122t-132.5 -47q-82 0 -135 47.5t-53 121.5v512h126v-512q0 -61 62 -61q63 0 63 61v512h121v-512zM339 791q0 -35 -32 -58.5t-79 -23.5q-48 0 -79 23.5t-31 58.5q0 24 9 42h49v-15q0 -47 52 -47q53 0 53 47v15h48q10 -20 10 -42z" />
    <glyph glyph-name="ubreve" unicode="&#x16d;" horiz-adv-x="382" 
d="M341 0h-89l-5 72q-15 -39 -43 -59.5t-62 -20.5q-49 0 -76 32.5t-27 86.5v369h106v-355q0 -22 11.5 -35t29.5 -13q21 0 35.5 22t14.5 44v337h105v-480zM302 621q0 -35 -32 -58.5t-79 -23.5q-48 0 -79 23.5t-31 58.5q0 24 9 42h49v-15q0 -47 52 -47q53 0 53 47v15h48
q10 -20 10 -42z" />
    <glyph glyph-name="Uring" unicode="&#x16e;" horiz-adv-x="455" 
d="M308 787q0 -33 -23 -57.5t-58 -24.5t-58 24.5t-23 57.5t23 57.5t58 24.5t58 -24.5t23 -57.5zM267 787q0 21 -10.5 33.5t-29.5 12.5q-39 0 -39 -46q0 -21 10.5 -33.5t28.5 -12.5t29 12.5t11 33.5zM413 154q0 -75 -51.5 -122t-132.5 -47q-82 0 -135 47.5t-53 121.5v512h126
v-512q0 -61 62 -61q63 0 63 61v512h121v-512z" />
    <glyph glyph-name="uring" unicode="&#x16f;" horiz-adv-x="382" 
d="M272 617q0 -33 -23 -57.5t-58 -24.5t-58 24.5t-23 57.5t23 57.5t58 24.5t58 -24.5t23 -57.5zM231 617q0 21 -10.5 33.5t-29.5 12.5q-39 0 -39 -46q0 -21 10.5 -33.5t28.5 -12.5t29 12.5t11 33.5zM341 0h-89l-5 72q-15 -39 -43 -59.5t-62 -20.5q-49 0 -76 32.5t-27 86.5
v369h106v-355q0 -22 11.5 -35t29.5 -13q21 0 35.5 22t14.5 44v337h105v-480z" />
    <glyph glyph-name="Uhungarumlaut" unicode="&#x170;" horiz-adv-x="455" 
d="M413 154q0 -75 -51.5 -122t-132.5 -47q-82 0 -135 47.5t-53 121.5v512h126v-512q0 -61 62 -61q63 0 63 61v512h121v-512zM381 846l-75 -138h-59l51 138h83zM253 846l-58 -138h-57l35 138h80z" />
    <glyph glyph-name="uhungarumlaut" unicode="&#x171;" horiz-adv-x="382" 
d="M341 0h-89l-5 72q-15 -39 -43 -59.5t-62 -20.5q-49 0 -76 32.5t-27 86.5v369h106v-355q0 -22 11.5 -35t29.5 -13q21 0 35.5 22t14.5 44v337h105v-480zM344 676l-75 -138h-59l51 138h83zM216 676l-58 -138h-57l35 138h80z" />
    <glyph glyph-name="Uogonek" unicode="&#x172;" horiz-adv-x="455" 
d="M413 154q0 -69 -44.5 -114.5t-116.5 -53.5q-24 -34 -24 -67q0 -25 16 -40.5t53 -7.5v-37q-23 -15 -52 -15q-38 0 -61 22.5t-23 56.5q0 47 44 88q-73 8 -118.5 53.5t-45.5 114.5v512h126v-512q0 -61 62 -61q63 0 63 61v512h121v-512z" />
    <glyph glyph-name="uogonek" unicode="&#x173;" horiz-adv-x="382" 
d="M341 480v-480q-58 -34 -58 -83q0 -24 15.5 -38.5t50.5 -7.5v-37q-24 -15 -50 -15q-37 0 -59.5 21.5t-22.5 57.5q0 30 21.5 58t57.5 44h-44l-5 72q-15 -39 -43 -59.5t-62 -20.5q-49 0 -76 32.5t-27 86.5v369h106v-355q0 -22 11.5 -35t29.5 -13q21 0 35.5 22t14.5 44v337
h105z" />
    <glyph glyph-name="Wcircumflex" unicode="&#x174;" horiz-adv-x="609" 
d="M436 718q-24 -8 -45 -8q-65 0 -84 78q-9 -37 -31.5 -57.5t-53.5 -20.5q-17 0 -39 8v28q60 0 85 95h82q25 -95 86 -95v-28zM606 666l-123 -666h-111l-67 392l-71 -392h-110l-118 666h123l60 -440l74 440h96l68 -440l64 440h115z" />
    <glyph glyph-name="wcircumflex" unicode="&#x175;" horiz-adv-x="491" 
d="M376 545q-24 -8 -45 -8q-65 0 -84 78q-9 -37 -31.5 -57.5t-53.5 -20.5q-17 0 -39 8v28q60 0 85 95h82q25 -95 86 -95v-28zM486 480l-102 -480h-85l-39 195l-14 91l-15 -91l-38 -195h-86l-101 480h103l34 -236l12 -96l13 96l39 236h86l35 -236l14 -96l12 96l38 236h94z
" />
    <glyph glyph-name="Ycircumflex" unicode="&#x176;" horiz-adv-x="416" 
d="M420 666l-151 -394v-272h-124v272l-147 394h130l86 -271l82 271h124zM337 715q-24 -8 -45 -8q-65 0 -84 78q-9 -37 -31.5 -57.5t-53.5 -20.5q-17 0 -39 8v28q60 0 85 95h82q25 -95 86 -95v-28z" />
    <glyph glyph-name="ycircumflex" unicode="&#x177;" horiz-adv-x="333" 
d="M327 480l-116 -495q-19 -77 -47.5 -111t-97.5 -34h-30v80h22q27 0 37.5 10t16.5 37l8 41l-112 472h102l45 -237l15 -93l14 93l44 237h99zM295 545q-24 -8 -45 -8q-65 0 -84 78q-9 -37 -31.5 -57.5t-53.5 -20.5q-17 0 -39 8v28q60 0 85 95h82q25 -95 86 -95v-28z" />
    <glyph glyph-name="Ydieresis" unicode="&#x178;" horiz-adv-x="416" 
d="M420 666l-151 -394v-272h-124v272l-147 394h130l86 -271l82 271h124zM318 709h-83v97h83v-97zM185 709h-82v97h82v-97z" />
    <glyph glyph-name="Zacute" unicode="&#x179;" horiz-adv-x="397" 
d="M307 849l-80 -138h-59l38 138h101zM379 627l-213 -517h205v-110h-356v39l216 520h-203v107h351v-39z" />
    <glyph glyph-name="zacute" unicode="&#x17a;" horiz-adv-x="309" 
d="M263 676l-80 -138h-59l38 138h101zM290 429l-156 -335h151v-94h-267v51l159 339h-149v90h262v-51z" />
    <glyph glyph-name="Zdotaccent" unicode="&#x17b;" horiz-adv-x="397" 
d="M379 627l-213 -517h205v-110h-356v39l216 520h-203v107h351v-39zM242 719h-82v97h82v-97z" />
    <glyph glyph-name="zdotaccent" unicode="&#x17c;" horiz-adv-x="309" 
d="M290 429l-156 -335h151v-94h-267v51l159 339h-149v90h262v-51zM198 546h-82v97h82v-97z" />
    <glyph glyph-name="Zcaron" unicode="&#x17d;" horiz-adv-x="397" 
d="M379 627l-213 -517h205v-110h-356v39l216 520h-203v107h351v-39zM328 799q-61 0 -86 -94h-82q-25 94 -85 94v28q20 7 44 7q66 0 85 -76q8 36 30.5 56t53.5 20q20 0 40 -7v-28z" />
    <glyph glyph-name="zcaron" unicode="&#x17e;" horiz-adv-x="309" 
d="M290 429l-156 -335h151v-94h-267v51l159 339h-149v90h262v-51zM286 636q-61 0 -86 -94h-82q-25 94 -85 94v28q20 7 44 7q66 0 85 -76q8 36 30.5 56t53.5 20q20 0 40 -7v-28z" />
    <glyph glyph-name="florin" unicode="&#x192;" horiz-adv-x="315" 
d="M214 392h75v-82h-75v-172q0 -155 -141 -155h-31v84h12q30 0 40.5 11t10.5 37v195h-73v82h73v120q0 154 141 154h31v-84h-12q-29 0 -40 -11.5t-11 -36.5v-142z" />
    <glyph glyph-name="Aringacute" unicode="&#x1fa;" horiz-adv-x="413" 
d="M312 966l-80 -138h-59l38 138h101zM156 666q-31 21 -31 60q0 34 23 58t58 24t58 -24t23 -58q0 -39 -31 -60h20l133 -666h-126l-22 131h-118l-24 -131h-116l134 666h19zM246 726q0 21 -10.5 33.5t-29.5 12.5t-29.5 -12.5t-10.5 -33.5q0 -20 10.5 -32.5t29.5 -12.5
t29.5 12.5t10.5 32.5zM245 229l-40 257l-45 -257h85z" />
    <glyph glyph-name="aringacute" unicode="&#x1fb;" horiz-adv-x="359" 
d="M340 -8h-25q-64 0 -78 61q-35 -61 -107 -61q-48 0 -78.5 33t-30.5 90v14q0 67 49 102.5t144 59.5v69q0 42 -41 42q-39 0 -39 -44v-35h-96v30q0 61 35.5 98t104.5 37t103.5 -40t34.5 -106v-250q0 -24 24 -25v-75zM214 121v104q-48 -11 -70.5 -30t-22.5 -52v-27
q0 -20 10.5 -32.5t29.5 -12.5q22 0 37.5 14.5t15.5 35.5zM290 836l-80 -138h-59l38 138h101zM262 593q0 -33 -23 -57.5t-58 -24.5t-58 24.5t-23 57.5t23 57.5t58 24.5t58 -24.5t23 -57.5zM221 593q0 21 -10.5 33.5t-29.5 12.5q-39 0 -39 -46q0 -21 10.5 -33.5t28.5 -12.5
t29 12.5t11 33.5z" />
    <glyph glyph-name="AEacute" unicode="&#x1fc;" horiz-adv-x="618" 
d="M453 849l-80 -138h-59l38 138h101zM594 0h-319v131h-110l-41 -131h-122l217 666h375v-107h-194v-164h134v-99h-134v-185h194v-111zM275 229v272l-79 -272h79z" />
    <glyph glyph-name="aeacute" unicode="&#x1fd;" horiz-adv-x="541" 
d="M379 676l-80 -138h-59l38 138h101zM512 143q0 -68 -36.5 -109.5t-95.5 -41.5q-81 0 -116 57q-41 -57 -124 -57q-55 0 -86.5 33.5t-31.5 89.5v14q0 67 49 102.5t144 59.5v64q0 45 -42 45q-41 0 -41 -44v-33h-92v30q0 60 33.5 97.5t94.5 37.5q67 0 102 -55q37 55 110 55
q60 0 96 -42t36 -110v-106h-188v-100q0 -51 47 -51q23 0 35 14t12 37v44h94v-31zM415 280v70q0 23 -12 37t-33 14q-22 0 -34 -14t-12 -37v-70h91zM215 124v101q-48 -11 -70.5 -30t-22.5 -52v-25q0 -20 10.5 -32.5t29.5 -12.5q22 0 37.5 14.5t15.5 36.5z" />
    <glyph glyph-name="Oslashacute" unicode="&#x1fe;" horiz-adv-x="450" 
d="M432 666l-40 -76q22 -38 22 -91v-332q0 -81 -51 -131.5t-138 -50.5q-78 0 -128 42l-30 -58l-50 31l40 77q-21 39 -21 90v332q0 80 51.5 130.5t137.5 50.5q77 0 127 -41l30 58zM288 518q-7 54 -63 54q-30 0 -46.5 -17.5t-16.5 -47.5v-230zM289 159v234l-127 -242
q2 -26 19 -41.5t44 -15.5q30 0 47 17.5t17 47.5zM330 858l-80 -138h-59l38 138h101z" />
    <glyph glyph-name="oslashacute" unicode="&#x1ff;" 
d="M355 479q-19 -31 -42 -69q16 -34 16 -77v-187q0 -71 -40.5 -112.5t-106.5 -41.5q-65 0 -103 38l-35 -57l-35 28l41 67q-16 35 -16 78v187q0 71 41 113t107 42q62 0 102 -38l35 56zM289 676l-80 -138h-59l38 138h101zM227 126v144l-23 -36l-44 -72l-23 -37q0 -22 12 -35
t33 -13q20 0 32.5 13.5t12.5 35.5zM227 356q-1 20 -13.5 33.5t-31.5 13.5q-21 0 -33 -14t-12 -36v-144z" />
    <glyph glyph-name="Scommaaccent" unicode="&#x218;" horiz-adv-x="417" 
d="M254 -134q0 -40 -22 -64t-64 -24v29q19 0 31.5 13.5t11.5 36.5h-42v94h85v-85zM393 169q0 -81 -51 -132.5t-133 -51.5q-85 0 -135 47t-50 125v46h114v-39q0 -76 68 -76q32 0 49 18t17 49q0 38 -23.5 68.5t-76.5 69.5q-142 102 -142 208q0 76 48 127.5t134 51.5
q78 0 126.5 -48t48.5 -123v-43h-113v40q0 32 -16 51.5t-47 19.5q-27 0 -43.5 -16t-16.5 -44q0 -39 23 -66.5t84 -72.5q66 -50 100.5 -98t34.5 -111z" />
    <glyph glyph-name="scommaaccent" unicode="&#x219;" horiz-adv-x="335" 
d="M213 -133q0 -40 -22 -64t-64 -24v29q19 0 31.5 13.5t11.5 36.5h-42v94h85v-85zM313 128q0 -57 -37 -96.5t-105 -39.5q-69 0 -107.5 38t-38.5 102v23h90v-26q0 -55 52 -55q50 0 50 45q0 16 -4.5 27.5t-20 24.5t-25.5 19.5t-41 25.5q-95 52 -95 138q0 61 39 97.5t101 36.5
q65 0 101.5 -37.5t36.5 -98.5v-18h-87v24q0 45 -49 45q-44 0 -44 -40q0 -22 16 -39t56 -41q54 -29 83 -64t29 -91z" />
    <glyph glyph-name="schwa" unicode="&#x259;" horiz-adv-x="354" 
d="M29 336q0 69 38.5 110t104.5 41q65 0 106 -42t41 -110v-192q0 -67 -41 -109.5t-106 -42.5t-104 42t-39 110v106h188v103q0 23 -12 36.5t-34 13.5q-47 0 -47 -50v-47h-95v31zM126 199v-72q0 -24 12 -37.5t33 -13.5q22 0 34 14t12 37v72h-91z" />
    <glyph glyph-name="circumflex" unicode="&#x2c6;" horiz-adv-x="277" 
d="M266 545q-24 -8 -45 -8q-65 0 -84 78q-9 -37 -31.5 -57.5t-53.5 -20.5q-17 0 -39 8v28q60 0 85 95h82q25 -95 86 -95v-28z" />
    <glyph glyph-name="caron" unicode="&#x2c7;" horiz-adv-x="278" 
d="M266 636q-61 0 -86 -94h-82q-25 94 -85 94v28q20 7 44 7q66 0 85 -76q8 36 30.5 56t53.5 20q20 0 40 -7v-28z" />
    <glyph glyph-name="breve" unicode="&#x2d8;" horiz-adv-x="244" 
d="M233 621q0 -35 -32 -58.5t-79 -23.5q-48 0 -79 23.5t-31 58.5q0 24 9 42h49v-15q0 -47 52 -47q53 0 53 47v15h48q10 -20 10 -42z" />
    <glyph glyph-name="dotaccent" unicode="&#x2d9;" horiz-adv-x="241" 
d="M162 546h-82v97h82v-97z" />
    <glyph glyph-name="ring" unicode="&#x2da;" horiz-adv-x="182" 
d="M173 617q0 -33 -23 -57.5t-58 -24.5t-58 24.5t-23 57.5t23 57.5t58 24.5t58 -24.5t23 -57.5zM132 617q0 21 -10.5 33.5t-29.5 12.5q-39 0 -39 -46q0 -21 10.5 -33.5t28.5 -12.5t29 12.5t11 33.5z" />
    <glyph glyph-name="ogonek" unicode="&#x2db;" horiz-adv-x="187" 
d="M159 -129v-37q-23 -15 -52 -15q-38 0 -61 22.5t-23 56.5t25 67t67 53l19 -9q-44 -44 -44 -90q0 -25 16 -40.5t53 -7.5z" />
    <glyph glyph-name="tilde" unicode="&#x2dc;" horiz-adv-x="284" 
d="M273 627q0 -79 -73 -79q-26 0 -64.5 24t-48.5 24q-20 0 -20 -23v-24h-41q-13 19 -13 41q0 79 72 79q26 0 64.5 -23.5t48.5 -23.5q21 0 21 23v23h41q13 -19 13 -41z" />
    <glyph glyph-name="hungarumlaut" unicode="&#x2dd;" horiz-adv-x="256" 
d="M263 676l-75 -138h-59l51 138h83zM135 676l-58 -138h-57l35 138h80z" />
    <glyph glyph-name="commaaccent" unicode="&#x326;" horiz-adv-x="242" 
d="M162 -133q0 -40 -22 -64t-64 -24v29q19 0 31.5 13.5t11.5 36.5h-42v94h85v-85z" />
    <glyph glyph-name="Wgrave" unicode="&#x1e80;" horiz-adv-x="609" 
d="M606 666l-123 -666h-111l-67 392l-71 -392h-110l-118 666h123l60 -440l74 440h96l68 -440l64 440h115zM343 711h-59l-79 138h100z" />
    <glyph glyph-name="wgrave" unicode="&#x1e81;" horiz-adv-x="491" 
d="M486 480l-102 -480h-85l-39 195l-14 91l-15 -91l-38 -195h-86l-101 480h103l34 -236l12 -96l13 96l39 236h86l35 -236l14 -96l12 96l38 236h94zM283 538h-59l-79 138h100z" />
    <glyph glyph-name="Wacute" unicode="&#x1e82;" horiz-adv-x="609" 
d="M415 849l-80 -138h-59l38 138h101zM606 666l-123 -666h-111l-67 392l-71 -392h-110l-118 666h123l60 -440l74 440h96l68 -440l64 440h115z" />
    <glyph glyph-name="wacute" unicode="&#x1e83;" horiz-adv-x="491" 
d="M355 676l-80 -138h-59l38 138h101zM486 480l-102 -480h-85l-39 195l-14 91l-15 -91l-38 -195h-86l-101 480h103l34 -236l12 -96l13 96l39 236h86l35 -236l14 -96l12 96l38 236h94z" />
    <glyph glyph-name="Wdieresis" unicode="&#x1e84;" horiz-adv-x="609" 
d="M415 719h-83v97h83v-97zM282 719h-82v97h82v-97zM606 666l-123 -666h-111l-67 392l-71 -392h-110l-118 666h123l60 -440l74 440h96l68 -440l64 440h115z" />
    <glyph glyph-name="wdieresis" unicode="&#x1e85;" horiz-adv-x="491" 
d="M356 546h-83v97h83v-97zM223 546h-82v97h82v-97zM486 480l-102 -480h-85l-39 195l-14 91l-15 -91l-38 -195h-86l-101 480h103l34 -236l12 -96l13 96l39 236h86l35 -236l14 -96l12 96l38 236h94z" />
    <glyph glyph-name="Ygrave" unicode="&#x1ef2;" horiz-adv-x="416" 
d="M420 666l-151 -394v-272h-124v272l-147 394h130l86 -271l82 271h124zM244 708h-59l-79 138h100z" />
    <glyph glyph-name="ygrave" unicode="&#x1ef3;" horiz-adv-x="333" 
d="M327 480l-116 -495q-19 -77 -47.5 -111t-97.5 -34h-30v80h22q27 0 37.5 10t16.5 37l8 41l-112 472h102l45 -237l15 -93l14 93l44 237h99zM202 538h-59l-79 138h100z" />
    <glyph glyph-name="enspace" unicode="&#x2002;" horiz-adv-x="500" 
 />
    <glyph glyph-name="emspace" unicode="&#x2003;" horiz-adv-x="1000" 
 />
    <glyph glyph-name="threeperemspace" unicode="&#x2004;" horiz-adv-x="333" 
 />
    <glyph glyph-name="fourperemspace" unicode="&#x2005;" horiz-adv-x="250" 
 />
    <glyph glyph-name="thinspace" unicode="&#x2009;" horiz-adv-x="133" 
 />
    <glyph glyph-name="hairspace" unicode="&#x200a;" horiz-adv-x="75" 
 />
    <glyph glyph-name="endash" unicode="&#x2013;" horiz-adv-x="475" 
d="M413 263h-350v84h350v-84z" />
    <glyph glyph-name="emdash" unicode="&#x2014;" horiz-adv-x="713" 
d="M651 263h-588v84h588v-84z" />
    <glyph glyph-name="quoteleft" unicode="&#x2018;" horiz-adv-x="162" 
d="M32 559q0 48 28 78.5t78 30.5v-30q-53 0 -53 -66h45v-127h-98v114z" />
    <glyph glyph-name="quoteright" unicode="&#x2019;" horiz-adv-x="162" 
d="M130 552q0 -48 -28 -78t-78 -30v29q53 0 53 66h-45v127h98v-114z" />
    <glyph glyph-name="quotesinglbase" unicode="&#x201a;" horiz-adv-x="162" 
d="M130 13q0 -48 -28 -78t-78 -30v29q53 0 53 66h-45v127h98v-114z" />
    <glyph glyph-name="quotedblleft" unicode="&#x201c;" horiz-adv-x="291" 
d="M162 559q0 48 27.5 78.5t77.5 30.5v-30q-53 0 -53 -66h44v-127h-96v114zM32 559q0 48 28 78.5t78 30.5v-30q-53 0 -53 -66h45v-127h-98v114z" />
    <glyph glyph-name="quotedblright" unicode="&#x201d;" horiz-adv-x="291" 
d="M258 552q0 -48 -27.5 -78t-77.5 -30v29q25 0 39.5 17t14.5 49h-45v127h96v-114zM130 552q0 -48 -28 -78t-78 -30v29q53 0 53 66h-45v127h98v-114z" />
    <glyph glyph-name="quotedblbase" unicode="&#x201e;" horiz-adv-x="291" 
d="M258 13q0 -48 -27.5 -78t-77.5 -30v29q25 0 39.5 17t14.5 49h-45v127h96v-114zM130 13q0 -48 -28 -78t-78 -30v29q53 0 53 66h-45v127h98v-114z" />
    <glyph glyph-name="dagger" unicode="&#x2020;" horiz-adv-x="373" 
d="M361 421q0 -12 -14 -12q-92 0 -136 12q12 -44 12 -173q0 -233 -10 -306q0 -14 -11 -14h-30q-13 0 -13 14q-8 82 -8 306q0 128 11 173q-44 -12 -135 -12q-14 0 -14 12v48q0 11 14 11q92 0 135 -11q-11 40 -11 183q0 14 11 14h49q12 0 12 -14q0 -138 -11 -183q42 11 135 11
q14 0 14 -11v-48z" />
    <glyph glyph-name="daggerdbl" unicode="&#x2021;" horiz-adv-x="373" 
d="M361 118q0 -11 -14 -11q-93 0 -135 11q11 -45 11 -183q0 -14 -12 -14h-49q-11 0 -11 14q0 143 11 183q-43 -11 -135 -11q-14 0 -14 11v48q0 12 14 12q85 0 135 -12q-11 45 -11 124t11 124q-44 -12 -135 -12q-14 0 -14 12v48q0 11 14 11q92 0 135 -11q-11 40 -11 183
q0 14 11 14h49q12 0 12 -14q0 -138 -11 -183q42 11 135 11q14 0 14 -11v-48q0 -12 -14 -12q-92 0 -136 12q12 -44 12 -124t-12 -124q49 12 136 12q14 0 14 -12v-48z" />
    <glyph glyph-name="bullet" unicode="&#x2022;" horiz-adv-x="284" 
d="M258 333q0 -54 -32.5 -86t-83.5 -32t-84 32t-33 86t33 86t84 32t83.5 -32t32.5 -86z" />
    <glyph glyph-name="ellipsis" unicode="&#x2026;" horiz-adv-x="514" 
d="M474 0h-97v127h97v-127zM306 0h-98v127h98v-127zM136 0h-96v127h96v-127z" />
    <glyph glyph-name="perthousand" unicode="&#x2030;" horiz-adv-x="813" 
d="M231 439q0 -47 -28.5 -75t-72.5 -28t-72 28t-28 75v138q0 47 28 75t72 28t72.5 -28t28.5 -75v-138zM516 655l-416 -677l-42 32l416 677zM790 88q0 -48 -28.5 -76t-72.5 -28t-72 28t-28 76v138q0 47 28 75t72 28t72.5 -28t28.5 -75v-138zM544 88q0 -48 -28.5 -76
t-72.5 -28t-72 28t-28 76v138q0 47 28 75t72 28t72.5 -28t28.5 -75v-138zM164 425v167q0 14 -9.5 23.5t-24.5 9.5q-14 0 -23.5 -9.5t-9.5 -23.5v-167q0 -14 9.5 -23.5t23.5 -9.5q15 0 24.5 9.5t9.5 23.5zM723 73v168q0 14 -9.5 23t-24.5 9t-24 -9t-9 -23v-168q0 -14 9 -23.5
t24 -9.5t24.5 9.5t9.5 23.5zM478 73v168q0 14 -10 23t-25 9q-14 0 -23.5 -9t-9.5 -23v-168q0 -14 9.5 -23.5t23.5 -9.5q15 0 25 9.5t10 23.5z" />
    <glyph glyph-name="guilsinglleft" unicode="&#x2039;" horiz-adv-x="237" 
d="M207 0h-49q-12 56 -48 100t-87 59v69q50 15 86.5 59t48.5 100h49q0 -59 -22 -112.5t-60 -81.5q38 -27 60 -80.5t22 -112.5z" />
    <glyph glyph-name="guilsinglright" unicode="&#x203a;" horiz-adv-x="237" 
d="M213 159q-50 -15 -86 -59t-48 -100h-49q0 59 22 112.5t60 80.5q-38 28 -60 81.5t-22 112.5h49q12 -56 48 -100t86 -59v-69z" />
    <glyph glyph-name="fraction" unicode="&#x2044;" horiz-adv-x="100" 
d="M323 708l-497 -783l-48 33l498 782z" />
    <glyph glyph-name="Euro" unicode="&#x20ac;" horiz-adv-x="447" 
d="M241 -15q-87 0 -136 51t-49 132v80h-50v55h52v60h-52v56h50v79q0 81 49 132t136 51q86 0 132.5 -48t46.5 -127v-50h-109v51q0 31 -17.5 49t-51.5 18q-33 0 -50 -18t-17 -47v-90h147v-56h-147v-60h147v-55h-147v-91q0 -30 17 -47.5t50 -17.5q34 0 51.5 18t17.5 49v51h109
v-50q0 -79 -46.5 -127t-132.5 -48z" />
    <glyph glyph-name="published" unicode="&#x2117;" horiz-adv-x="680" 
d="M658 326q0 -133 -91.5 -226t-226.5 -93t-226.5 93t-91.5 226t91.5 226.5t226.5 93.5t226.5 -93.5t91.5 -226.5zM608 326q0 116 -75.5 195t-192.5 79t-192.5 -79t-75.5 -195q0 -115 75.5 -194.5t192.5 -79.5t192.5 79.5t75.5 194.5zM457 369q0 -75 -85 -75h-61v-108h-55
v284h116q85 0 85 -72v-29zM402 369v29q0 31 -36 31h-55v-93h55q36 0 36 33z" />
    <glyph glyph-name="servicemark" unicode="&#x2120;" horiz-adv-x="556" 
d="M513 402h-57v202l-19 -82l-30 -120h-48l-31 120l-18 81v-201h-55v264h87l43 -178l41 178h87v-264zM215 476q0 -34 -27 -57.5t-72 -23.5q-47 0 -73.5 22.5t-26.5 55.5v10h58q-1 -18 11 -28.5t31 -10.5q38 0 38 31q0 15 -21 25t-46 16t-46 25.5t-21 50.5q0 32 25 56.5
t69 24.5q45 0 70 -22.5t25 -56.5v-13h-56v3q0 40 -38 40q-17 0 -26 -9t-9 -22q0 -17 21 -26.5t46.5 -14.5t46.5 -24t21 -52z" />
    <glyph glyph-name="trademark" unicode="&#x2122;" horiz-adv-x="581" 
d="M221 612h-71v-210h-60v210h-71v54h202v-54zM522 402h-57v202l-19 -82l-30 -120h-48l-31 120l-18 81v-201h-55v264h87l43 -178l41 178h87v-264z" />
    <glyph glyph-name="minus" unicode="&#x2212;" horiz-adv-x="344" 
d="M313 273h-282v85h282v-85z" />
    <glyph glyph-name="box.1" unicode="&#xe000;" horiz-adv-x="507" 
d="M483 0h-459v480h459v-480z" />
    <glyph glyph-name="box.2" unicode="&#xe001;" horiz-adv-x="520" 
d="M496 0h-472v492h472v-492zM445 49v394h-370v-394h370z" />
    <glyph glyph-name="wedge.1_W" unicode="&#xe010;" 
d="M308 107l-266 129v13l266 128v-270z" />
    <glyph glyph-name="wedge.1_E" unicode="&#xe011;" 
d="M323 236l-266 -129v270l266 -128v-13z" />
    <glyph glyph-name="R.alt" horiz-adv-x="429" 
d="M284 0l-82 267h-35v-267h-125v666h208q71 0 111 -38.5t40 -109.5v-105q0 -99 -80 -129l91 -284h-128zM167 360h65q49 0 49 52v104q0 48 -43 48h-71v-204z" />
    <glyph glyph-name="t.alt" horiz-adv-x="245" 
d="M235 389h-64v-242q0 -95 25 -147h-108q-23 51 -23 147v242h-54v86h59v84l101 27v-111h64v-86z" />
    <glyph glyph-name="one.alt" horiz-adv-x="291" 
d="M210 0h-116v515h-67v86h38q54 0 62 65h83v-666z" />
    <glyph glyph-name="Euro.alt" horiz-adv-x="427" 
d="M154 375h185v-84h-185v-132q0 -29 17.5 -47t50.5 -18t50.5 18t17.5 49v57h110v-58q0 -79 -47 -127t-133 -48q-87 0 -135.5 51t-48.5 132v330q0 81 48.5 132t135.5 51q86 0 133 -48t47 -127v-58h-110v57q0 31 -17.5 49t-50.5 18t-50.5 -18t-17.5 -47v-132z" />
    <glyph glyph-name="registered.alt" horiz-adv-x="680" 
d="M658 326q0 -133 -91.5 -226t-226.5 -93t-226.5 93t-91.5 226t91.5 226.5t226.5 93.5t226.5 -93.5t91.5 -226.5zM608 326q0 116 -75.5 195t-192.5 79t-192.5 -79t-75.5 -195q0 -115 75.5 -194.5t192.5 -79.5t192.5 79.5t75.5 194.5zM465 183h-15q-32 0 -44 10t-12 37v33
q0 42 -38 42h-55v-119h-55v284h116q85 0 85 -79v-5q0 -53 -48 -62q25 -2 37.5 -19.5t12.5 -40.5v-29q0 -13 16 -13v-39zM392 383v9q0 35 -35 35h-56v-84h51q40 0 40 40z" />
    <glyph glyph-name="Racute.alt" horiz-adv-x="429" 
d="M314 849l-80 -138h-59l38 138h101zM284 0l-82 267h-35v-267h-125v666h208q71 0 111 -38.5t40 -109.5v-105q0 -99 -80 -129l91 -284h-128zM167 360h65q49 0 49 52v104q0 48 -43 48h-71v-204z" />
    <glyph glyph-name="Rcaron.alt" horiz-adv-x="429" 
d="M339 805q-61 0 -86 -94h-82q-25 94 -85 94v28q20 7 44 7q66 0 85 -76q8 36 30.5 56t53.5 20q20 0 40 -7v-28zM284 0l-82 267h-35v-267h-125v666h208q71 0 111 -38.5t40 -109.5v-105q0 -99 -80 -129l91 -284h-128zM167 360h65q49 0 49 52v104q0 48 -43 48h-71v-204z" />
    <glyph glyph-name="Rcommaaccent.alt" horiz-adv-x="429" 
d="M257 -133q0 -40 -22 -64t-64 -24v29q19 0 31.5 13.5t11.5 36.5h-42v94h85v-85zM284 0l-82 267h-35v-267h-125v666h208q71 0 111 -38.5t40 -109.5v-105q0 -99 -80 -129l91 -284h-128zM167 360h65q49 0 49 52v104q0 48 -43 48h-71v-204z" />
    <glyph glyph-name="i.dot" horiz-adv-x="185" 
d="M143 544h-102v101h102v-101zM145 0h-105v480h105v-480z" />
    <glyph glyph-name="tcaron.alt" horiz-adv-x="245" 
d="M235 389h-64v-242q0 -95 25 -147h-108q-23 51 -23 147v242h-54v86h59v84l101 27v-111h64v-86zM290 682l-37 -164h-48v164h85z" />
    <glyph glyph-name="tcommaaccent.alt" horiz-adv-x="245" 
d="M235 389h-64v-242q0 -95 25 -147h-108q-23 51 -23 147v242h-54v86h59v84l101 27v-111h64v-86zM183 -133q0 -40 -22 -64t-64 -24v29q19 0 31.5 13.5t11.5 36.5h-42v94h85v-85z" />
    <glyph glyph-name="caron.alt" horiz-adv-x="174" 
d="M141 666l-37 -164h-48v164h85z" />
    <glyph glyph-name="hfjslug" horiz-adv-x="694" 
d="M644 -200h-208l-8 14h-163l-8 -14h-207v303q14 0 23 9.5t9 22.5t-9.5 22.5t-22.5 9.5v554h100l30 79h334l29 -79h101v-921zM400 563v-172h15v78h38v14h-38v66h43v14h-58zM184 563v-172h15v79h47v-79h15v172h-15v-79h-47v79h-15zM460 394q10 -4 21 -4q31 0 31 36v137h-16
v-137q0 -22 -16 -22q-8 0 -20 5v-15zM371 465l-13 3q-4 -18 -8 -30h-1l-16 31q23 21 23 42q0 31 -27 31q-12 0 -20 -9t-8 -22t14 -39q-23 -18 -23 -47q0 -16 8 -26.5t21 -10.5q19 0 29 24h1l12 -24l12 6l-17 32q6 14 13 39zM523 323v-46h8v12l8 8l15 -20h10l-20 26l18 20
h-10l-20 -24h-1v24h-8zM488 292l10 -15h9l-12 17q10 4 10 14q0 15 -17 15h-20v-46h8v15h12zM426 276q10 0 17 7t7 17q0 9 -7 16.5t-17 7.5t-17 -7.5t-7 -16.5q0 -10 7 -17t17 -7zM370 301l-13 22h-9l18 -29v-17h8v17l18 29h-9zM193 323v-46h34v7h-26v13h23v7h-23v12h26v7
h-34zM132 323v-46h8v32l25 -32h7v46h-8v-32l-25 32h-7zM241 323l14 -47h8l11 34h1l11 -34h8l14 47h-8l-10 -35h-1l-11 35h-7l-11 -35h-1l-10 35h-8zM327 479q-12 22 -12 32q0 19 14 19q13 0 13 -19q0 -15 -15 -32zM342 423q-8 -21 -20 -21q-16 0 -16 25q0 19 16 35zM487 299
h-11v17h11q10 0 10 -8q0 -9 -10 -9zM426 283q-16 0 -16 17q0 6 4.5 11.5t11.5 5.5t11.5 -5.5t4.5 -11.5q0 -17 -16 -17z" />
    <glyph glyph-name="NUL" horiz-adv-x="1000" 
 />
    </font>
</defs>
</svg>
